<svg width="249" height="105" viewBox="0 0 249 105" fill="none" xmlns="http://www.w3.org/2000/svg">
<g clip-path="url(#clip0_692_6330)">
<path d="M137.676 92.1024V92.914H138.488H189.971H190.783V92.1024V79.0901V78.2784H189.971H159.472C162.426 75.3901 165.089 72.7588 167.463 70.3852L177.193 60.6544L177.194 60.6544L177.2 60.648C180.638 57.1336 183.544 53.3479 185.918 49.2909C188.407 45.0902 189.651 40.4969 189.651 35.5273C189.651 32.2545 189.027 29.2007 187.772 26.3756C186.522 23.4851 184.76 20.9796 182.491 18.8661C180.215 16.7469 177.44 15.11 174.185 13.9463C170.913 12.7012 167.27 12.0858 163.268 12.0858C159.564 12.0858 156.184 12.6643 153.138 13.8351C150.201 14.9175 147.635 16.3533 145.447 18.1484C143.269 19.8612 141.472 21.8514 140.065 24.1184C138.675 26.2817 137.659 28.4239 137.031 30.5446L136.823 31.2468L137.5 31.5256L150.964 37.0698L151.808 37.4171L152.055 36.5392C152.694 34.2677 153.901 32.2377 155.695 30.4437L155.7 30.4381L155.706 30.4324C157.403 28.6678 159.81 27.7396 163.041 27.7396C166.281 27.7396 168.737 28.6352 170.513 30.3418L170.519 30.3475L170.525 30.353C172.333 32.0222 173.205 33.9611 173.205 36.2062C173.205 37.4218 173.062 38.5556 172.782 39.6109C172.498 40.6015 172.07 41.6398 171.49 42.7265L171.485 42.7358L171.481 42.7451C170.989 43.7271 170.278 44.765 169.33 45.8582L169.32 45.8701L169.31 45.8824C168.411 47.0053 167.362 48.2797 166.161 49.7057C165.567 50.374 164.711 51.3049 163.59 52.5008L159.752 56.3387L155.112 60.9781C154.554 61.5365 154 62.0908 153.449 62.6409C152.365 63.7247 151.298 64.7922 150.247 65.8432C146.477 69.613 142.368 73.685 137.919 78.0583L137.676 78.2969V78.6372V92.1024Z" fill="url(#paint0_linear_692_6330)" stroke="#EFEFEF" stroke-width="1.62329"/>
<path d="M223.622 91.3959V92.2075H224.434H239.219H240.031V91.3959V77.8775H249H249.811V77.0658V63.1907V62.3791H249H240.031V13.6042V12.7926H239.219H223.069H222.637L222.396 13.1513L187.822 64.5574L187.684 64.7628V65.0104V77.0658V77.8775H188.495H223.622V91.3959ZM206.515 62.3791L223.622 37.0853V62.3791H206.515Z" fill="url(#paint1_linear_692_6330)" stroke="#EFEFEF" stroke-width="1.62329"/>
<path d="M107.965 49.8144L108.407 49.1385L113.646 41.126C112.229 40.4409 110.988 39.4254 109.924 38.0959L109.911 38.0786L109.898 38.0606C108.656 36.3221 108.049 34.2663 108.049 31.9314C108.049 29.0052 109.074 26.4967 111.116 24.4554C111.116 24.4554 111.116 24.4554 111.116 24.4553M107.965 49.8144L125.607 25.0293C123.721 23.068 121.42 22.0874 118.705 22.0874C115.989 22.0874 113.651 23.068 111.69 25.0293L111.116 24.4553M107.965 49.8144L108.639 50.2598L115.315 54.6726L115.986 55.1161L116.435 54.4494L126.275 39.8602C127.199 38.5502 127.907 37.2968 128.388 36.1011C128.967 34.8524 129.247 33.4572 129.247 31.9314C129.247 29.0076 128.223 26.5011 126.186 24.461M107.965 49.8144L126.186 24.461M111.116 24.4553C113.225 22.3455 115.769 21.2758 118.705 21.2758C121.639 21.2758 124.149 22.3448 126.186 24.461M111.116 24.4553L126.186 24.461" fill="url(#paint2_linear_692_6330)" stroke="#EFEFEF" stroke-width="1.62329"/>
<path d="M0 11.181H-0.811647V11.9927V93.0075V93.8192H0H27.3821C33.8767 93.8192 39.7478 92.8259 44.9838 90.8242L44.9839 90.8242C50.2084 88.8261 54.6805 86.0153 58.3872 82.3859C62.0952 78.7552 64.9111 74.3935 66.8364 69.3124C68.8381 64.2291 69.8328 58.6212 69.8328 52.5001C69.8328 46.4527 68.8376 40.8832 66.8364 35.8011C64.9116 30.7215 62.0967 26.3608 58.3902 22.7306C54.6836 19.0249 50.2106 16.1749 44.9839 14.1765C39.7478 12.1744 33.8768 11.181 27.3821 11.181H0ZM46.3831 70.8218L46.383 70.8219C44.2134 72.9922 41.4892 74.7055 38.1914 75.9524C34.9038 77.1202 31.0789 77.7128 26.7033 77.7128H16.0869V27.2874H26.7033C31.0773 27.2874 34.8993 27.9178 38.184 29.1586L38.1914 29.1614L38.1989 29.1641C41.4941 30.3357 44.2155 32.0105 46.383 34.1782L46.3831 34.1782C48.5534 36.3485 50.1881 38.9945 51.2824 42.1315L51.2844 42.1371C52.3798 45.2045 52.9343 48.6556 52.9343 52.5001C52.9343 56.343 52.3803 59.8336 51.2834 62.979C50.1902 66.0392 48.5562 68.6489 46.3831 70.8218Z" fill="url(#paint3_linear_692_6330)" stroke="#EFEFEF" stroke-width="1.62329"/>
<path d="M55.6252 89.3637L55.6302 89.3673C60.607 92.9443 66.3956 94.7242 72.9634 94.7242C76.7453 94.7242 80.273 94.1075 83.5382 92.8651C86.8817 91.6971 89.7724 89.9411 92.1975 87.5934L92.1977 87.5932C94.6995 85.1697 96.6464 82.2066 98.0428 78.7174C99.5222 75.1317 100.252 71.0271 100.252 66.4172V11.0874V10.2758H99.4402H84.165H83.3533V11.0874V66.5308C83.3533 70.4791 82.4035 73.4342 80.6102 75.5036C78.8312 77.5556 76.3209 78.6179 72.9634 78.6179C69.9612 78.6179 67.4721 77.7647 65.4473 76.0885L65.4472 76.0884C63.4248 74.4149 61.9115 71.8654 60.961 68.3551L60.7203 67.4663L59.8688 67.8166L45.8387 73.5874L45.1534 73.8693L45.3719 74.5774C47.3042 80.8392 50.7194 85.781 55.6252 89.3637Z" fill="url(#paint4_linear_692_6330)" stroke="#EFEFEF" stroke-width="1.62329"/>
</g>
<defs>
<linearGradient id="paint0_linear_692_6330" x1="137.809" y1="52.4997" x2="189.971" y2="52.4997" gradientUnits="userSpaceOnUse">
<stop stop-color="#4383F2"/>
<stop offset="1" stop-color="#0F9D58"/>
</linearGradient>
<linearGradient id="paint1_linear_692_6330" x1="-258.396" y1="51.1824" x2="247.187" y2="51.1824" gradientUnits="userSpaceOnUse">
<stop stop-color="#FC5251"/>
<stop offset="0.33" stop-color="#5A90FC"/>
<stop offset="0.66" stop-color="#FBC235"/>
<stop offset="1" stop-color="#39AA68"/>
</linearGradient>
<linearGradient id="paint2_linear_692_6330" x1="108.861" y1="38.0414" x2="128.435" y2="38.0414" gradientUnits="userSpaceOnUse">
<stop stop-color="#4383F2"/>
<stop offset="1" stop-color="#0F9D58"/>
</linearGradient>
<linearGradient id="paint3_linear_692_6330" x1="2.57124e-07" y1="52.4998" x2="69.0211" y2="52.4998" gradientUnits="userSpaceOnUse">
<stop stop-color="#4383F2"/>
<stop offset="1" stop-color="#0F9D58"/>
</linearGradient>
<linearGradient id="paint4_linear_692_6330" x1="46.1474" y1="52.4997" x2="99.4402" y2="52.4997" gradientUnits="userSpaceOnUse">
<stop stop-color="#4383F2"/>
<stop offset="1" stop-color="#0F9D58"/>
</linearGradient>
<clipPath id="clip0_692_6330">
<rect width="249" height="105" fill="white"/>
</clipPath>
</defs>
</svg>
