<svg width="155" height="122" viewBox="0 0 155 122" fill="none" xmlns="http://www.w3.org/2000/svg">
<mask id="path-1-outside-1_797_11223" maskUnits="userSpaceOnUse" x="0.541016" y="0" width="107" height="122" fill="black">
<rect fill="white" x="0.541016" width="107" height="122"/>
<path fill-rule="evenodd" clip-rule="evenodd" d="M58.8478 1H101.302V6.27622H106.578V30.5543H80.4412V34.8542H96.101V40.9754H75.3714V50.589H85.6611V61.8174H79.6338H79.615V56.7852H75.3339V74.9422H70.0013V82.7345H64.8752V87.9919H59.6552V115.029H64.8376V120.962H53.6091V112.587H48.3328V93.193H44.0705V98.3754H38.813V103.558H33.6306V108.008H38.813V113.941H27.5469V93.1555H22.402V88.067H17.1633V82.7533H11.9809V77.646H6.72341V72.2571H1.54102V40.2055H7.53082V50.6453H12.732V55.8464H17.8956V61.01H27.5469V55.8464H32.8044V50.589H40.6156V45.294H48.3516V40.1867H53.6467V6.25744H58.8103V1H58.8478ZM63.8911 8.56962H70.0687V14.7847H63.8724L63.8911 8.56962Z"/>
</mask>
<path fill-rule="evenodd" clip-rule="evenodd" d="M58.8478 1H101.302V6.27622H106.578V30.5543H80.4412V34.8542H96.101V40.9754H75.3714V50.589H85.6611V61.8174H79.6338H79.615V56.7852H75.3339V74.9422H70.0013V82.7345H64.8752V87.9919H59.6552V115.029H64.8376V120.962H53.6091V112.587H48.3328V93.193H44.0705V98.3754H38.813V103.558H33.6306V108.008H38.813V113.941H27.5469V93.1555H22.402V88.067H17.1633V82.7533H11.9809V77.646H6.72341V72.2571H1.54102V40.2055H7.53082V50.6453H12.732V55.8464H17.8956V61.01H27.5469V55.8464H32.8044V50.589H40.6156V45.294H48.3516V40.1867H53.6467V6.25744H58.8103V1H58.8478ZM63.8911 8.56962H70.0687V14.7847H63.8724L63.8911 8.56962Z" fill="url(#paint0_linear_797_11223)"/>
<path d="M101.302 1H102.243C102.243 0.480203 101.822 0.0588236 101.302 0.0588236V1ZM101.302 6.27622H100.361C100.361 6.79602 100.782 7.2174 101.302 7.2174V6.27622ZM106.578 6.27622H107.52C107.52 5.75642 107.098 5.33504 106.578 5.33504V6.27622ZM106.578 30.5543V31.4955C107.098 31.4955 107.52 31.0741 107.52 30.5543H106.578ZM80.4412 30.5543V29.6132C79.9214 29.6132 79.5 30.0345 79.5 30.5543H80.4412ZM80.4412 34.8542H79.5C79.5 35.374 79.9214 35.7954 80.4412 35.7954V34.8542ZM96.101 34.8542H97.0422C97.0422 34.3344 96.6208 33.913 96.101 33.913V34.8542ZM96.101 40.9754V41.9165C96.6208 41.9165 97.0422 41.4952 97.0422 40.9754H96.101ZM75.3714 40.9754V40.0342C74.8516 40.0342 74.4302 40.4556 74.4302 40.9754H75.3714ZM75.3714 50.589H74.4302C74.4302 51.1088 74.8516 51.5301 75.3714 51.5301V50.589ZM85.6611 50.589H86.6023C86.6023 50.0692 86.1809 49.6478 85.6611 49.6478V50.589ZM85.6611 61.8174V62.7585C86.1809 62.7585 86.6023 62.3372 86.6023 61.8174H85.6611ZM79.615 61.8174H78.6738C78.6738 62.3372 79.0952 62.7585 79.615 62.7585V61.8174ZM79.615 56.7852H80.5562C80.5562 56.2654 80.1348 55.8441 79.615 55.8441V56.7852ZM75.3339 56.7852V55.8441C74.8141 55.8441 74.3927 56.2654 74.3927 56.7852H75.3339ZM75.3339 74.9422V75.8834C75.8537 75.8834 76.275 75.462 76.275 74.9422H75.3339ZM70.0013 74.9422V74.001C69.4815 74.001 69.0601 74.4224 69.0601 74.9422H70.0013ZM70.0013 82.7345V83.6757C70.521 83.6757 70.9424 83.2543 70.9424 82.7345H70.0013ZM64.8752 82.7345V81.7933C64.3554 81.7933 63.934 82.2147 63.934 82.7345H64.8752ZM64.8752 87.9919V88.9331C65.395 88.9331 65.8164 88.5117 65.8164 87.9919H64.8752ZM59.6552 87.9919V87.0507C59.1354 87.0507 58.7141 87.4721 58.7141 87.9919H59.6552ZM59.6552 115.029H58.7141C58.7141 115.549 59.1354 115.97 59.6552 115.97V115.029ZM64.8376 115.029H65.7788C65.7788 114.509 65.3574 114.088 64.8376 114.088V115.029ZM64.8376 120.962V121.904C65.3574 121.904 65.7788 121.482 65.7788 120.962H64.8376ZM53.6091 120.962H52.6679C52.6679 121.482 53.0893 121.904 53.6091 121.904V120.962ZM53.6091 112.587H54.5503C54.5503 112.067 54.1289 111.646 53.6091 111.646V112.587ZM48.3328 112.587H47.3916C47.3916 113.107 47.813 113.528 48.3328 113.528V112.587ZM48.3328 93.193H49.274C49.274 92.6732 48.8526 92.2519 48.3328 92.2519V93.193ZM44.0705 93.193V92.2519C43.5507 92.2519 43.1293 92.6732 43.1293 93.193H44.0705ZM44.0705 98.3754V99.3166C44.5903 99.3166 45.0117 98.8952 45.0117 98.3754H44.0705ZM38.813 98.3754V97.4342C38.2932 97.4342 37.8718 97.8556 37.8718 98.3754H38.813ZM38.813 103.558V104.499C39.3328 104.499 39.7542 104.078 39.7542 103.558H38.813ZM33.6306 103.558V102.617C33.1108 102.617 32.6894 103.038 32.6894 103.558H33.6306ZM33.6306 108.008H32.6894C32.6894 108.528 33.1108 108.949 33.6306 108.949V108.008ZM38.813 108.008H39.7542C39.7542 107.488 39.3328 107.067 38.813 107.067V108.008ZM38.813 113.941V114.882C39.3328 114.882 39.7542 114.461 39.7542 113.941H38.813ZM27.5469 113.941H26.6057C26.6057 114.461 27.0271 114.882 27.5469 114.882V113.941ZM27.5469 93.1555H28.4881C28.4881 92.6357 28.0667 92.2143 27.5469 92.2143V93.1555ZM22.402 93.1555H21.4609C21.4609 93.6753 21.8822 94.0967 22.402 94.0967V93.1555ZM22.402 88.067H23.3432C23.3432 87.5472 22.9218 87.1259 22.402 87.1259V88.067ZM17.1633 88.067H16.2221C16.2221 88.5868 16.6435 89.0082 17.1633 89.0082V88.067ZM17.1633 82.7533H18.1045C18.1045 82.2335 17.6831 81.8121 17.1633 81.8121V82.7533ZM11.9809 82.7533H11.0397C11.0397 83.2731 11.4611 83.6944 11.9809 83.6944V82.7533ZM11.9809 77.646H12.9221C12.9221 77.1262 12.5007 76.7048 11.9809 76.7048V77.646ZM6.72341 77.646H5.78224C5.78224 78.1658 6.20362 78.5872 6.72341 78.5872V77.646ZM6.72341 72.2571H7.66459C7.66459 71.7373 7.24321 71.316 6.72341 71.316V72.2571ZM1.54102 72.2571H0.599839C0.599839 72.7769 1.02122 73.1983 1.54102 73.1983L1.54102 72.2571ZM1.54102 40.2055V39.2643C1.02122 39.2643 0.599839 39.6857 0.599839 40.2055H1.54102ZM7.53082 40.2055H8.47199C8.47199 39.6857 8.05061 39.2643 7.53082 39.2643V40.2055ZM7.53082 50.6453H6.58964C6.58964 51.1651 7.01102 51.5865 7.53082 51.5865V50.6453ZM12.732 50.6453H13.6732C13.6732 50.1255 13.2518 49.7041 12.732 49.7041V50.6453ZM12.732 55.8464H11.7908C11.7908 56.3662 12.2122 56.7876 12.732 56.7876V55.8464ZM17.8956 55.8464H18.8368C18.8368 55.3266 18.4154 54.9052 17.8956 54.9052V55.8464ZM17.8956 61.01H16.9544C16.9544 61.5298 17.3758 61.9511 17.8956 61.9511V61.01ZM27.5469 61.01V61.9511C28.0667 61.9511 28.4881 61.5298 28.4881 61.01H27.5469ZM27.5469 55.8464V54.9052C27.0271 54.9052 26.6057 55.3266 26.6057 55.8464H27.5469ZM32.8044 55.8464V56.7876C33.3242 56.7876 33.7456 56.3662 33.7456 55.8464H32.8044ZM32.8044 50.589V49.6478C32.2846 49.6478 31.8632 50.0692 31.8632 50.589H32.8044ZM40.6156 50.589V51.5301C41.1353 51.5301 41.5567 51.1088 41.5567 50.589H40.6156ZM40.6156 45.294V44.3528C40.0958 44.3528 39.6744 44.7742 39.6744 45.294H40.6156ZM48.3516 45.294V46.2351C48.8714 46.2351 49.2928 45.8138 49.2928 45.294H48.3516ZM48.3516 40.1867V39.2456C47.8318 39.2456 47.4104 39.6669 47.4104 40.1867H48.3516ZM53.6467 40.1867V41.1279C54.1665 41.1279 54.5878 40.7065 54.5878 40.1867H53.6467ZM53.6467 6.25744V5.31627C53.1269 5.31627 52.7055 5.73765 52.7055 6.25744H53.6467ZM58.8103 6.25744V7.19862C59.3301 7.19862 59.7514 6.77724 59.7514 6.25744H58.8103ZM58.8103 1V0.0588236C58.2905 0.0588236 57.8691 0.480203 57.8691 1L58.8103 1ZM70.0687 8.56962H71.0099C71.0099 8.04982 70.5885 7.62845 70.0687 7.62845V8.56962ZM63.8911 8.56962V7.62845C63.3724 7.62845 62.9515 8.04809 62.95 8.56678L63.8911 8.56962ZM70.0687 14.7847V15.7258C70.5885 15.7258 71.0099 15.3045 71.0099 14.7847H70.0687ZM63.8724 14.7847L62.9312 14.7818C62.9304 15.0319 63.0293 15.2721 63.2058 15.4492C63.3824 15.6263 63.6223 15.7258 63.8724 15.7258V14.7847ZM101.302 0.0588236H58.8478V1.94118H101.302V0.0588236ZM102.243 6.27622V1H100.361V6.27622H102.243ZM106.578 5.33504H101.302V7.2174H106.578V5.33504ZM107.52 30.5543V6.27622H105.637V30.5543H107.52ZM80.4412 31.4955H106.578V29.6132H80.4412V31.4955ZM81.3823 34.8542V30.5543H79.5V34.8542H81.3823ZM96.101 33.913H80.4412V35.7954H96.101V33.913ZM97.0422 40.9754V34.8542H95.1598V40.9754H97.0422ZM75.3714 41.9165H96.101V40.0342H75.3714V41.9165ZM76.3126 50.589V40.9754H74.4302V50.589H76.3126ZM85.6611 49.6478H75.3714V51.5301H85.6611V49.6478ZM86.6023 61.8174V50.589H84.7199V61.8174H86.6023ZM79.6338 62.7585H85.6611V60.8762H79.6338V62.7585ZM79.615 62.7585H79.6338V60.8762H79.615V62.7585ZM78.6738 56.7852V61.8174H80.5562V56.7852H78.6738ZM75.3339 57.7264H79.615V55.8441H75.3339V57.7264ZM76.275 74.9422V56.7852H74.3927V74.9422H76.275ZM70.0013 75.8834H75.3339V74.001H70.0013V75.8834ZM70.9424 82.7345V74.9422H69.0601V82.7345H70.9424ZM64.8752 83.6757H70.0013V81.7933H64.8752V83.6757ZM65.8164 87.9919V82.7345H63.934V87.9919H65.8164ZM59.6552 88.9331H64.8752V87.0507H59.6552V88.9331ZM60.5964 115.029V87.9919H58.7141V115.029H60.5964ZM64.8376 114.088H59.6552V115.97H64.8376V114.088ZM65.7788 120.962V115.029H63.8965V120.962H65.7788ZM53.6091 121.904H64.8376V120.021H53.6091V121.904ZM52.6679 112.587V120.962H54.5503V112.587H52.6679ZM48.3328 113.528H53.6091V111.646H48.3328V113.528ZM47.3916 93.193V112.587H49.274V93.193H47.3916ZM44.0705 94.1342H48.3328V92.2519H44.0705V94.1342ZM45.0117 98.3754V93.193H43.1293V98.3754H45.0117ZM38.813 99.3166H44.0705V97.4342H38.813V99.3166ZM39.7542 103.558V98.3754H37.8718V103.558H39.7542ZM33.6306 104.499H38.813V102.617H33.6306V104.499ZM34.5718 108.008V103.558H32.6894V108.008H34.5718ZM38.813 107.067H33.6306V108.949H38.813V107.067ZM39.7542 113.941V108.008H37.8718V113.941H39.7542ZM27.5469 114.882H38.813V113H27.5469V114.882ZM26.6057 93.1555V113.941H28.4881V93.1555H26.6057ZM22.402 94.0967H27.5469V92.2143H22.402V94.0967ZM21.4609 88.067V93.1555H23.3432V88.067H21.4609ZM17.1633 89.0082H22.402V87.1259H17.1633V89.0082ZM16.2221 82.7533V88.067H18.1045V82.7533H16.2221ZM11.9809 83.6944H17.1633V81.8121H11.9809V83.6944ZM11.0397 77.646V82.7533H12.9221V77.646H11.0397ZM6.72341 78.5872H11.9809V76.7048H6.72341V78.5872ZM5.78224 72.2571V77.646H7.66459V72.2571H5.78224ZM1.54102 73.1983H6.72341V71.316H1.54102V73.1983ZM0.599839 40.2055V72.2571H2.48219V40.2055H0.599839ZM7.53082 39.2643H1.54102V41.1467H7.53082V39.2643ZM8.47199 50.6453V40.2055H6.58964V50.6453H8.47199ZM12.732 49.7041H7.53082V51.5865H12.732V49.7041ZM13.6732 55.8464V50.6453H11.7908V55.8464H13.6732ZM17.8956 54.9052H12.732V56.7876H17.8956V54.9052ZM18.8368 61.01V55.8464H16.9544V61.01H18.8368ZM27.5469 60.0688H17.8956V61.9511H27.5469V60.0688ZM26.6057 55.8464V61.01H28.4881V55.8464H26.6057ZM32.8044 54.9052H27.5469V56.7876H32.8044V54.9052ZM31.8632 50.589V55.8464H33.7456V50.589H31.8632ZM40.6156 49.6478H32.8044V51.5301H40.6156V49.6478ZM39.6744 45.294V50.589H41.5567V45.294H39.6744ZM48.3516 44.3528H40.6156V46.2351H48.3516V44.3528ZM47.4104 40.1867V45.294H49.2928V40.1867H47.4104ZM53.6467 39.2456H48.3516V41.1279H53.6467V39.2456ZM52.7055 6.25744V40.1867H54.5878V6.25744H52.7055ZM58.8103 5.31627H53.6467V7.19862H58.8103V5.31627ZM57.8691 1V6.25744H59.7514V1H57.8691ZM58.8478 0.0588236H58.8103V1.94118H58.8478V0.0588236ZM70.0687 7.62845H63.8911V9.5108H70.0687V7.62845ZM71.0099 14.7847V8.56962H69.1275V14.7847H71.0099ZM63.8724 15.7258H70.0687V13.8435H63.8724V15.7258ZM62.95 8.56678L62.9312 14.7818L64.8135 14.7875L64.8323 8.57247L62.95 8.56678Z" fill="white" mask="url(#path-1-outside-1_797_11223)"/>
<path d="M53.6198 9.60352H55.7383V12.2089H53.6198V9.60352Z" fill="#101010"/>
<path d="M53.6198 6.98389H55.7383V9.58469H53.6198V6.98389Z" fill="#101010"/>
<path d="M55.8293 6.98389H57.9441V9.58469H55.8293V6.98389Z" fill="#101010"/>
<path d="M57.8935 6.98389H60.012V9.58469H57.8935V6.98389Z" fill="#101010"/>
<path d="M60.0995 6.98389H62.218V9.58469H60.0995V6.98389Z" fill="#101010"/>
<path d="M62.1829 12.2227H64.2859V15.5649H62.1829V12.2227Z" fill="#101010"/>
<path d="M62.1711 9.60352H64.2859V12.2089H62.1711V9.60352Z" fill="#101010"/>
<path d="M62.1559 6.98389H64.2708V9.58469H62.1559V6.98389Z" fill="#101010"/>
<path d="M64.2355 14.7734H66.354V17.3788H64.2355V14.7734Z" fill="#101010"/>
<path d="M64.2355 12.2227H66.354V14.8235H64.2355V12.2227Z" fill="#101010"/>
<path d="M64.2355 9.60352H66.354V12.2089H64.2355V9.60352Z" fill="#101010"/>
<path d="M64.2355 6.98389H66.354V9.58469H64.2355V6.98389Z" fill="#101010"/>
<path d="M66.445 14.7734H68.5598V17.3788H66.445V14.7734Z" fill="#101010"/>
<path d="M66.445 12.2227H68.5598V14.8235H66.445V12.2227Z" fill="#101010"/>
<path d="M66.445 9.60352H68.5598V12.2089H66.445V9.60352Z" fill="#101010"/>
<path d="M66.445 6.98389H68.5598V9.58469H66.445V6.98389Z" fill="#101010"/>
<path d="M68.5038 14.7891H70.6223V17.3944H68.5038V14.7891Z" fill="#101010"/>
<path d="M68.5094 12.2227H70.6279V14.8235H68.5094V12.2227Z" fill="#101010"/>
<path d="M68.5094 9.60352H70.6279V12.2089H68.5094V9.60352Z" fill="#101010"/>
<path d="M68.5038 6.98389H70.6223V9.58469H68.5038V6.98389Z" fill="#101010"/>
<path d="M70.5773 14.7734H72.6958V17.3788H70.5773V14.7734Z" fill="#101010"/>
<path d="M70.5773 12.2227H72.6958V14.8235H70.5773V12.2227Z" fill="white"/>
<path d="M70.5773 9.60352H72.6958V12.2089H70.5773V9.60352Z" fill="#101010"/>
<path d="M70.5773 6.98389H72.6958V9.58469H70.5773V6.98389Z" fill="#101010"/>
<path d="M72.787 14.7734H74.9019V17.3788H72.787V14.7734Z" fill="#101010"/>
<path d="M72.787 12.2227H74.9019V14.8235H72.787V12.2227Z" fill="#101010"/>
<path d="M72.787 9.60352H74.9019V12.2089H72.787V9.60352Z" fill="white"/>
<path d="M72.787 6.98389H74.9019V9.58469H72.787V6.98389Z" fill="#101010"/>
<path d="M74.8527 14.7891H76.9712V17.3944H74.8527V14.7891Z" fill="#101010"/>
<path d="M74.8512 12.2227H76.9697V14.8235H74.8512V12.2227Z" fill="white"/>
<path d="M74.8512 9.60352H76.9697V12.2089H74.8512V9.60352Z" fill="#101010"/>
<path d="M74.8527 6.98389H76.9712V9.58469H74.8527V6.98389Z" fill="#101010"/>
<path d="M76.923 14.7734H79.0378V17.3788H76.923V14.7734Z" fill="#101010"/>
<path d="M76.923 12.2227H79.0378V14.8235H76.923V12.2227Z" fill="#101010"/>
<path d="M76.923 9.60352H79.0378V12.2089H76.923V9.60352Z" fill="white"/>
<path d="M76.923 6.98389H79.0378V9.58469H76.923V6.98389Z" fill="#101010"/>
<path d="M79.1251 12.2227H81.2437V14.8235H79.1251V12.2227Z" fill="#101010"/>
<path d="M79.1251 9.60352H81.2437V12.2089H79.1251V9.60352Z" fill="#101010"/>
<path d="M79.1251 6.98389H81.2437V9.58469H79.1251V6.98389Z" fill="#101010"/>
<path d="M81.2084 6.98389H83.3269V9.58469H81.2084V6.98389Z" fill="#101010"/>
<path d="M83.2648 6.98389H85.3796V9.58469H83.2648V6.98389Z" fill="#101010"/>
<path d="M85.4672 6.98389H87.5857V9.58469H85.4672V6.98389Z" fill="#101010"/>
<path d="M87.5387 12.2227H89.6536V14.8235H87.5387V12.2227Z" fill="#101010"/>
<path d="M87.5387 9.60352H89.6536V12.2089H87.5387V9.60352Z" fill="#101010"/>
<path d="M87.5387 6.98389H89.6536V9.58469H87.5387V6.98389Z" fill="#101010"/>
<path d="M89.7409 14.7734H91.8594V17.3788H89.7409V14.7734Z" fill="#101010"/>
<path d="M89.7409 12.2227H91.8594V14.8235H89.7409V12.2227Z" fill="#101010"/>
<path d="M89.7409 9.60352H91.8594V12.2089H89.7409V9.60352Z" fill="#101010"/>
<path d="M89.7409 6.98389H91.8594V9.58469H89.7409V6.98389Z" fill="#101010"/>
<path d="M91.809 14.7734H93.9275V17.3788H91.809V14.7734Z" fill="#101010"/>
<path d="M91.809 12.2227H93.9275V14.8235H91.809V12.2227Z" fill="#101010"/>
<path d="M91.809 9.60352H93.9275V12.2089H91.809V9.60352Z" fill="#101010"/>
<path d="M91.809 6.98389H93.9275V9.58469H91.809V6.98389Z" fill="#101010"/>
<path d="M93.8808 14.7734H95.9956V17.3788H93.8808V14.7734Z" fill="#101010"/>
<path d="M93.8808 12.2227H95.9956V14.8235H93.8808V12.2227Z" fill="#101010"/>
<path d="M93.8808 9.60352H95.9956V12.2089H93.8808V9.60352Z" fill="#101010"/>
<path d="M93.8808 6.98389H95.9956V9.58469H93.8808V6.98389Z" fill="#101010"/>
<path d="M96.0829 14.7734H98.2014V17.3788H96.0829V14.7734Z" fill="#101010"/>
<path d="M96.0829 12.2227H98.2014V14.8235H96.0829V12.2227Z" fill="white"/>
<path d="M96.0829 9.60352H98.2014V12.2089H96.0829V9.60352Z" fill="#101010"/>
<path d="M96.0829 6.98389H98.2014V9.58469H96.0829V6.98389Z" fill="#101010"/>
<path d="M98.1423 14.7891H100.257V17.3944H98.1423V14.7891Z" fill="#101010"/>
<path d="M98.1547 12.2227H100.27V14.8235H98.1547V12.2227Z" fill="#101010"/>
<path d="M98.1547 9.60352H100.27V12.2089H98.1547V9.60352Z" fill="white"/>
<path d="M98.1423 6.98389H100.257V9.58469H98.1423V6.98389Z" fill="#101010"/>
<path d="M100.219 14.7734H102.337V17.3788H100.219V14.7734Z" fill="#101010"/>
<path d="M100.219 12.2227H102.337V14.8235H100.219V12.2227Z" fill="white"/>
<path d="M100.219 9.60352H102.337V12.2089H100.219V9.60352Z" fill="#101010"/>
<path d="M100.219 6.98389H102.337V9.58469H100.219V6.98389Z" fill="#101010"/>
<path d="M102.425 14.7734H104.543V17.3788H102.425V14.7734Z" fill="#101010"/>
<path d="M102.425 12.2227H104.543V14.8235H102.425V12.2227Z" fill="#101010"/>
<path d="M102.425 9.60352H104.543V12.2089H102.425V9.60352Z" fill="white"/>
<path d="M102.425 6.98389H104.543V9.58469H102.425V6.98389Z" fill="#101010"/>
<path d="M104.497 12.2227H106.611V14.8235H104.497V12.2227Z" fill="#101010"/>
<path d="M104.497 9.60352H106.611V12.2089H104.497V9.60352Z" fill="#101010"/>
<path d="M104.497 6.98389H106.611V9.58469H104.497V6.98389Z" fill="#101010"/>
<mask id="path-79-outside-2_797_11223" maskUnits="userSpaceOnUse" x="71.3223" y="26.978" width="84" height="40" fill="black">
<rect fill="white" x="71.3223" y="26.978" width="84" height="40"/>
<path fill-rule="evenodd" clip-rule="evenodd" d="M109.943 27.978H151.028V29.778H153.681V35.718H151.521V41.478H148.821V46.878H145.221V53.178H141.621V59.478H139.147V63.6175H138.922V63.9763H137.663V63.9765H138.023V65.7765H74.1233V63.9765H74.3023V63.9763H72.3223L72.3223 63.6175V58.6675L72.3223 58.5763H94.8209V51.378H98.4209V45.978H102.021V40.578H104.721V35.178H107.421V29.778H109.943V27.978ZM137.121 58.5726V58.5763H137.119L137.121 58.5726ZM99.3209 53.178H99.4094L99.3209 53.3505V53.178Z"/>
</mask>
<path fill-rule="evenodd" clip-rule="evenodd" d="M109.943 27.978H151.028V29.778H153.681V35.718H151.521V41.478H148.821V46.878H145.221V53.178H141.621V59.478H139.147V63.6175H138.922V63.9763H137.663V63.9765H138.023V65.7765H74.1233V63.9765H74.3023V63.9763H72.3223L72.3223 63.6175V58.6675L72.3223 58.5763H94.8209V51.378H98.4209V45.978H102.021V40.578H104.721V35.178H107.421V29.778H109.943V27.978ZM137.121 58.5726V58.5763H137.119L137.121 58.5726ZM99.3209 53.178H99.4094L99.3209 53.3505V53.178Z" fill="#202124"/>
<path d="M151.028 27.978H152.028V26.978H151.028V27.978ZM109.943 27.978V26.978H108.943V27.978H109.943ZM151.028 29.778H150.028V30.778H151.028V29.778ZM153.681 29.778H154.681V28.778H153.681V29.778ZM153.681 35.718V36.718H154.681V35.718H153.681ZM151.521 35.718V34.718H150.521V35.718H151.521ZM151.521 41.478V42.478H152.521V41.478H151.521ZM148.821 41.478V40.478H147.821V41.478H148.821ZM148.821 46.878V47.878H149.821V46.878H148.821ZM145.221 46.878V45.878H144.221V46.878H145.221ZM145.221 53.178V54.178H146.221V53.178H145.221ZM141.621 53.178V52.178H140.621V53.178H141.621ZM141.621 59.478V60.478H142.621V59.478H141.621ZM139.147 59.478V58.478H138.147V59.478H139.147ZM139.147 63.6175V64.6175H140.147V63.6175H139.147ZM138.922 63.6175V62.6175H137.922V63.6175H138.922ZM138.922 63.9763V64.9763H139.922V63.9763H138.922ZM137.663 63.9763V62.9763H136.663V63.9763H137.663ZM137.663 63.9765H136.663V64.9765H137.663V63.9765ZM138.023 63.9765H139.023V62.9765H138.023V63.9765ZM138.023 65.7765V66.7765H139.023V65.7765H138.023ZM74.1233 65.7765H73.1233V66.7765H74.1233V65.7765ZM74.1233 63.9765V62.9765H73.1233V63.9765H74.1233ZM74.3023 63.9765V64.9765H75.3023V63.9765H74.3023ZM74.3023 63.9763H75.3023V62.9763H74.3023V63.9763ZM72.3223 63.9763L71.3223 63.9763L71.3223 64.9763H72.3223V63.9763ZM72.3223 63.6175H71.3223V63.6175L72.3223 63.6175ZM72.3223 58.6675L71.3223 58.6675V58.6675H72.3223ZM72.3223 58.5763V57.5763H71.3223L71.3223 58.5763L72.3223 58.5763ZM94.8209 58.5763V59.5763H95.8209V58.5763H94.8209ZM94.8209 51.378V50.378H93.8209V51.378H94.8209ZM98.4209 51.378V52.378H99.4209V51.378H98.4209ZM98.4209 45.978V44.978H97.4209V45.978H98.4209ZM102.021 45.978V46.978H103.021V45.978H102.021ZM102.021 40.578V39.578H101.021V40.578H102.021ZM104.721 40.578V41.578H105.721V40.578H104.721ZM104.721 35.178V34.178H103.721V35.178H104.721ZM107.421 35.178V36.178H108.421V35.178H107.421ZM107.421 29.778V28.778H106.421V29.778H107.421ZM109.943 29.778V30.778H110.943V29.778H109.943ZM137.121 58.5763V59.5763H138.121V58.5763H137.121ZM137.121 58.5726H138.121V55.106L136.275 58.04L137.121 58.5726ZM137.119 58.5763L136.272 58.0437L135.308 59.5763H137.119V58.5763ZM99.4094 53.178L100.299 53.6348L101.047 52.178H99.4094V53.178ZM99.3209 53.178V52.178H98.3209V53.178H99.3209ZM99.3209 53.3505H98.3209L100.21 53.8073L99.3209 53.3505ZM151.028 26.978H109.943V28.978H151.028V26.978ZM152.028 29.778V27.978H150.028V29.778H152.028ZM153.681 28.778H151.028V30.778H153.681V28.778ZM154.681 35.718V29.778H152.681V35.718H154.681ZM151.521 36.718H153.681V34.718H151.521V36.718ZM152.521 41.478V35.718H150.521V41.478H152.521ZM148.821 42.478H151.521V40.478H148.821V42.478ZM149.821 46.878V41.478H147.821V46.878H149.821ZM145.221 47.878H148.821V45.878H145.221V47.878ZM146.221 53.178V46.878H144.221V53.178H146.221ZM141.621 54.178H145.221V52.178H141.621V54.178ZM142.621 59.478V53.178H140.621V59.478H142.621ZM139.147 60.478H141.621V58.478H139.147V60.478ZM140.147 63.6175V59.478H138.147V63.6175H140.147ZM138.922 64.6175H139.147V62.6175H138.922V64.6175ZM139.922 63.9763V63.6175H137.922V63.9763H139.922ZM137.663 64.9763H138.922V62.9763H137.663V64.9763ZM138.663 63.9765V63.9763H136.663V63.9765H138.663ZM138.023 62.9765H137.663V64.9765H138.023V62.9765ZM139.023 65.7765V63.9765H137.023V65.7765H139.023ZM74.1233 66.7765H138.023V64.7765H74.1233V66.7765ZM73.1233 63.9765V65.7765H75.1233V63.9765H73.1233ZM74.3023 62.9765H74.1233V64.9765H74.3023V62.9765ZM73.3023 63.9763V63.9765H75.3023V63.9763H73.3023ZM72.3223 64.9763H74.3023V62.9763H72.3223V64.9763ZM71.3223 63.6175L71.3223 63.9763L73.3223 63.9763L73.3223 63.6175L71.3223 63.6175ZM71.3223 58.6675V63.6175H73.3223V58.6675H71.3223ZM71.3223 58.5763L71.3223 58.6675L73.3223 58.6676L73.3223 58.5764L71.3223 58.5763ZM94.8209 57.5763H72.3223V59.5763H94.8209V57.5763ZM93.8209 51.378V58.5763H95.8209V51.378H93.8209ZM98.4209 50.378H94.8209V52.378H98.4209V50.378ZM97.4209 45.978V51.378H99.4209V45.978H97.4209ZM102.021 44.978H98.4209V46.978H102.021V44.978ZM101.021 40.578V45.978H103.021V40.578H101.021ZM104.721 39.578H102.021V41.578H104.721V39.578ZM103.721 35.178V40.578H105.721V35.178H103.721ZM107.421 34.178H104.721V36.178H107.421V34.178ZM106.421 29.778V35.178H108.421V29.778H106.421ZM109.943 28.778H107.421V30.778H109.943V28.778ZM108.943 27.978V29.778H110.943V27.978H108.943ZM138.121 58.5763V58.5726H136.121V58.5763H138.121ZM137.119 59.5763H137.121V57.5763H137.119V59.5763ZM136.275 58.04L136.272 58.0437L137.965 59.1089L137.967 59.1052L136.275 58.04ZM99.4094 52.178H99.3209V54.178H99.4094V52.178ZM100.21 53.8073L100.299 53.6348L98.5198 52.7212L98.4313 52.8937L100.21 53.8073ZM98.3209 53.178V53.3505H100.321V53.178H98.3209Z" fill="#EFEFEF" mask="url(#path-79-outside-2_797_11223)"/>
<rect x="121.979" y="43.5986" width="1.22143" height="1.22143" fill="white"/>
<rect width="1.22143" height="1.22143" transform="matrix(1 0 0 -1 121.979 50.9272)" fill="white"/>
<rect x="120.758" y="44.8203" width="1.22143" height="1.22143" fill="white"/>
<rect width="1.22143" height="1.22143" transform="matrix(1 0 0 -1 120.758 49.7056)" fill="white"/>
<rect x="119.538" y="46.041" width="1.22143" height="1.22143" fill="white"/>
<rect width="1.22143" height="1.22143" transform="matrix(1 0 0 -1 119.538 48.4844)" fill="white"/>
<path d="M116.323 46.041H117.094V47.2624H116.323V46.041Z" fill="white"/>
<path d="M116.321 48.4844H117.094V47.2629H116.321V48.4844Z" fill="white"/>
<rect x="118.316" y="46.041" width="1.22143" height="1.22143" fill="white"/>
<rect width="1.22143" height="1.22143" transform="matrix(1 0 0 -1 118.316 48.4844)" fill="white"/>
<rect x="117.094" y="46.041" width="1.22143" height="1.22143" fill="white"/>
<rect width="1.22143" height="1.22143" transform="matrix(1 0 0 -1 117.094 48.4844)" fill="white"/>
<rect x="118.316" y="44.8203" width="1.22143" height="1.22143" fill="white"/>
<path d="M117.706 44.8203H118.317V46.0417H117.706V44.8203Z" fill="white"/>
<rect width="1.22143" height="1.22143" transform="matrix(1 0 0 -1 118.316 49.7056)" fill="white"/>
<path d="M117.706 49.7056H118.316V48.4841H117.706V49.7056Z" fill="white"/>
<rect x="119.538" y="44.8203" width="1.22143" height="1.22143" fill="white"/>
<rect width="1.22143" height="1.22143" transform="matrix(1 0 0 -1 119.538 49.7056)" fill="white"/>
<rect x="120.758" y="43.5986" width="1.22143" height="1.22143" fill="white"/>
<rect width="1.22143" height="1.22143" transform="matrix(1 0 0 -1 120.758 50.9272)" fill="white"/>
<rect x="119.538" y="43.5986" width="1.22143" height="1.22143" fill="white"/>
<rect width="1.22143" height="1.22143" transform="matrix(1 0 0 -1 119.538 50.9272)" fill="white"/>
<rect x="120.758" y="42.377" width="1.22143" height="1.22143" fill="white"/>
<rect width="1.22143" height="1.22143" transform="matrix(1 0 0 -1 120.758 52.1489)" fill="white"/>
<rect x="121.979" y="42.377" width="1.22143" height="1.22143" fill="white"/>
<rect width="1.22143" height="1.22143" transform="matrix(-1 0 0 1 128.343 43.5991)" fill="white"/>
<rect x="128.343" y="50.9272" width="1.22143" height="1.22143" transform="rotate(180 128.343 50.9272)" fill="white"/>
<rect width="1.22143" height="1.22143" transform="matrix(-1 0 0 1 129.564 44.8208)" fill="white"/>
<rect x="129.564" y="49.7056" width="1.22143" height="1.22143" transform="rotate(180 129.564 49.7056)" fill="white"/>
<rect width="1.22143" height="1.22143" transform="matrix(-1 0 0 1 130.784 46.0415)" fill="white"/>
<rect x="130.784" y="48.4849" width="1.22143" height="1.22143" transform="rotate(180 130.784 48.4849)" fill="white"/>
<rect width="1.22143" height="1.22143" transform="matrix(-1 0 0 1 132.006 46.0415)" fill="white"/>
<rect x="132.006" y="48.4849" width="1.22143" height="1.22143" transform="rotate(180 132.006 48.4849)" fill="white"/>
<rect width="1.22143" height="1.22143" transform="matrix(-1 0 0 1 133.228 46.0415)" fill="white"/>
<rect x="133.228" y="48.4849" width="1.22143" height="1.22143" transform="rotate(180 133.228 48.4849)" fill="white"/>
<rect width="1.22143" height="1.22143" transform="matrix(-1 0 0 1 132.006 44.8208)" fill="white"/>
<rect x="132.006" y="49.7056" width="1.22143" height="1.22143" transform="rotate(180 132.006 49.7056)" fill="white"/>
<rect width="1.22143" height="1.22143" transform="matrix(-1 0 0 1 130.784 44.8208)" fill="white"/>
<rect x="130.784" y="49.7056" width="1.22143" height="1.22143" transform="rotate(180 130.784 49.7056)" fill="white"/>
<rect width="1.22143" height="1.22143" transform="matrix(-1 0 0 1 129.564 43.5991)" fill="white"/>
<rect x="129.564" y="50.9272" width="1.22143" height="1.22143" transform="rotate(180 129.564 50.9272)" fill="white"/>
<rect width="1.22143" height="1.22143" transform="matrix(-1 0 0 1 130.784 43.5991)" fill="white"/>
<rect x="130.784" y="50.9272" width="1.22143" height="1.22143" transform="rotate(180 130.784 50.9272)" fill="white"/>
<rect width="1.22143" height="1.22143" transform="matrix(-1 0 0 1 129.564 42.3774)" fill="white"/>
<rect x="129.564" y="52.1489" width="1.22143" height="1.22143" transform="rotate(180 129.564 52.1489)" fill="white"/>
<rect width="1.22143" height="1.22143" transform="matrix(-1 0 0 1 109.022 27.8765)" fill="white"/>
<rect x="128.343" y="52.1489" width="1.22143" height="1.22143" transform="rotate(180 128.343 52.1489)" fill="white"/>
<rect width="1.22143" height="1.22143" transform="matrix(1 0 0 -1 121.979 52.1489)" fill="white"/>
<defs>
<linearGradient id="paint0_linear_797_11223" x1="54.124" y1="1" x2="113.11" y2="4.30274" gradientUnits="userSpaceOnUse">
<stop stop-color="#EA4335"/>
<stop offset="1" stop-color="#FBBC04"/>
</linearGradient>
</defs>
</svg>
