<svg width="707" height="203" viewBox="0 0 707 203" fill="none" xmlns="http://www.w3.org/2000/svg">
<g clip-path="url(#clip0_943_4979)">
<path d="M11.125 51.5413H10.0168V52.6494V163.26V164.368H11.125H48.5101C57.3773 164.368 65.393 163.012 72.5419 160.279L72.542 160.279C79.6751 157.551 85.7808 153.713 90.8416 148.758C95.9041 143.801 99.7486 137.846 102.377 130.909C105.11 123.969 106.468 116.312 106.468 107.955C106.468 99.698 105.11 92.094 102.377 85.1553C99.7495 78.2203 95.9065 72.2667 90.8461 67.3104C85.7854 62.2508 79.6782 58.3595 72.542 55.6309C65.3931 52.8975 57.3773 51.5413 48.5101 51.5413H11.125ZM47.5833 142.378H33.0885V73.5315H47.5833C53.5551 73.5315 58.7734 74.3921 63.2579 76.0862L63.2681 76.09L63.2783 76.0937C67.7773 77.6933 71.4929 79.98 74.4522 82.9395L74.4523 82.9395C77.4155 85.9026 79.6473 89.5153 81.1413 93.7982L81.1441 93.8059C82.6397 97.9939 83.3968 102.706 83.3968 107.955C83.3968 113.201 82.6403 117.967 81.1428 122.261C79.6503 126.44 77.4193 130.003 74.4523 132.969L74.4521 132.97C71.49 135.933 67.7706 138.272 63.2681 139.974C58.7794 141.569 53.5573 142.378 47.5833 142.378Z" fill="white" stroke="#202124" stroke-width="2.2163"/>
<path d="M169.931 145.577L170.508 144.558L169.458 144.037L152.62 135.695L151.668 135.223L151.157 136.155C149.491 139.193 147.189 141.744 144.235 143.811C141.48 145.711 137.906 146.703 133.436 146.703C131.172 146.703 128.96 146.409 126.799 145.821C124.669 145.141 122.682 144.125 120.834 142.767C119.095 141.313 117.589 139.568 116.319 137.522C115.334 135.707 114.617 133.589 114.183 131.154H169.894H171.002V130.046C171.002 129.488 171.048 128.995 171.135 128.563L171.156 128.456V128.346C171.156 127.904 171.201 127.4 171.296 126.83L171.311 126.739V126.647V126.644V126.641V126.638V126.635V126.632V126.629V126.626V126.623V126.62V126.617V126.614V126.611V126.608V126.605V126.602V126.599V126.596V126.593V126.59V126.586V126.583V126.58V126.577V126.574V126.571V126.568V126.565V126.562V126.559V126.556V126.553V126.55V126.546V126.543V126.54V126.537V126.534V126.531V126.528V126.525V126.522V126.518V126.515V126.512V126.509V126.506V126.503V126.5V126.497V126.493V126.49V126.487V126.484V126.481V126.478V126.475V126.471V126.468V126.465V126.462V126.459V126.456V126.452V126.449V126.446V126.443V126.44V126.437V126.433V126.43V126.427V126.424V126.421V126.417V126.414V126.411V126.408V126.405V126.401V126.398V126.395V126.392V126.389V126.385V126.382V126.379V126.376V126.373V126.369V126.366V126.363V126.36V126.356V126.353V126.35V126.347V126.343V126.34V126.337V126.334V126.33V126.327V126.324V126.321V126.317V126.314V126.311V126.308V126.304V126.301V126.298V126.294V126.291V126.288V126.285V126.281V126.278V126.275V126.271V126.268V126.265V126.261V126.258V126.255V126.252V126.248V126.245V126.242V126.238V126.235V126.232V126.228V126.225V126.222V126.218V126.215V126.212V126.208V126.205V126.202V126.198V126.195V126.192V126.188V126.185V126.181V126.178V126.175V126.171V126.168V126.165V126.161V126.158V126.154V126.151V126.148V126.144V126.141V126.138V126.134V126.131V126.127V126.124V126.121V126.117V126.114V126.11V126.107V126.103V126.1V126.097V126.093V126.09V126.086V126.083V126.079V126.076V126.073V126.069V126.066V126.062V126.059V126.055V126.052V126.048V126.045V126.042V126.038V126.035V126.031V126.028V126.024V126.021V126.017V126.014V126.01V126.007V126.003V126V125.996V125.993V125.989V125.986V125.982V125.979V125.975V125.972V125.968V125.965V125.961V125.958V125.954V125.951V125.947V125.944V125.94V125.937V125.933V125.93V125.926V125.923V125.919V125.915V125.912V125.908V125.905V125.901V125.898V125.894V125.891V125.887V125.883V125.88V125.876V125.873V125.869V125.866V125.862V125.858V125.855V125.851V125.848V125.844V125.841V125.837V125.833V125.83V125.826V125.823V125.819V125.815V125.812V125.808V125.804V125.801V125.797V125.794V125.79V125.786V125.783V125.779V125.775V125.772V125.768V125.765V125.761V125.757V125.754V125.75V125.746V125.743V125.739V125.735V125.732V125.728V125.724V125.721V125.717V125.713V125.71V125.706V125.702V125.699V125.695V125.691V125.688V125.684V125.68V125.676V125.673V125.669V125.665V125.662V125.658V125.654V125.651V125.647V125.643V125.639V125.636V125.632V125.628V125.624V125.621V125.617V125.613V125.61V125.606V125.602V125.598V125.595V125.591V125.587V125.583V125.58V125.576V125.572V125.568V125.564V125.561V125.557V125.553V125.549V125.546V125.542V125.538V125.534V125.53V125.527V125.523V125.519V125.515V125.511V125.508V125.504V125.5V125.496V125.492V125.489V125.485V125.481V125.477V125.473V125.469V125.466V125.462V125.458V125.454V125.45V125.446V125.443V125.439V125.435V125.431V125.427V125.423V125.42V125.416V125.412V125.408V125.404V125.4V125.396V125.392V125.389V125.385V125.381V125.377V125.373V125.369V125.365V125.361V125.357V125.354V125.35V125.346V125.342V125.338V125.334V125.33V125.326V125.322V125.318V125.315V125.311V125.307V125.303V125.299V125.295V125.291V125.287V125.283V125.279V125.275V125.271V125.267V125.263V125.259V125.255V125.251V125.248V125.244V125.24V125.236V125.232V125.228V125.224V125.22V125.216V125.212V125.208V125.204V125.2V125.196V125.192V125.188V125.184V125.18V125.176V125.172V125.168V125.164V125.16V125.156V125.152V125.148V125.144V125.14V125.136V125.132V125.128V125.124V125.12V125.116V125.111V125.107V125.103V125.099V125.095V125.091V125.087V125.083V125.079V125.075V125.071V125.067V125.063V125.059V125.055V125.051V125.047V125.042V125.038V125.034V125.03V125.026V125.022V125.018V125.014V125.01V125.006V125.002V124.997V124.993V124.989V124.985V124.981V124.977V124.973V124.969V124.964V124.96V124.956V124.952V124.948V124.944V124.94V124.936V124.931V124.927V124.923V124.919V124.915V124.911V124.907V124.902V124.898V124.894V124.89V124.886V124.882V124.877V124.873V124.869V124.865V124.861V124.856V124.852V124.848V124.844V124.84V124.835V124.831V124.827V124.823V124.819V124.814V124.81V124.806V124.802V124.798V124.793C171.311 119.02 170.471 113.645 168.78 108.679C167.088 103.708 164.595 99.4035 161.294 95.7817C157.986 92.0483 153.884 89.1758 149.008 87.1601C144.111 85.0328 138.552 83.9827 132.354 83.9827C126.444 83.9827 120.985 85.0914 115.99 87.3232L115.99 87.3231L115.982 87.3269C111.12 89.5466 106.884 92.563 103.283 96.374C99.6778 100.087 96.8735 104.484 94.8672 109.551C92.8557 114.529 91.8528 119.819 91.8528 125.411C91.8528 131.407 92.8525 136.953 94.8657 142.04L94.8709 142.053L94.8764 142.066C96.99 147.032 99.9009 151.375 103.609 155.084L103.609 155.084C107.317 158.791 111.66 161.702 116.627 163.816L116.64 163.821L116.653 163.827C121.737 165.839 127.232 166.84 133.127 166.84C141.84 166.84 149.269 164.896 155.354 160.948C161.478 157.04 166.342 151.912 169.931 145.577ZM148.177 111.642L148.189 111.669L148.202 111.694C148.729 112.748 149.085 113.705 149.288 114.571H115.512C116.83 111.03 118.86 108.26 121.588 106.215C124.681 103.894 128.256 102.729 132.354 102.729C135.339 102.729 137.808 103.177 139.797 104.03L139.805 104.033L139.814 104.037C141.969 104.919 143.691 106.028 145.01 107.348L145.024 107.361L145.038 107.374C146.492 108.731 147.527 110.155 148.177 111.642Z" fill="white" stroke="#202124" stroke-width="2.2163"/>
<path d="M152.695 86.4553H151.018L151.676 87.9982L183.963 163.695L184.25 164.369H184.982H204.91H205.64L205.928 163.699L238.524 88.0018L239.19 86.4553H237.506H214.643H213.889L213.612 87.1571L195.103 134.108L176.746 87.1599L176.47 86.4553H175.714H152.695Z" fill="white" stroke="#202124" stroke-width="2.2163"/>
<path d="M210.78 159.193L210.787 159.198C217.582 164.081 225.485 166.511 234.452 166.511C239.615 166.511 244.432 165.67 248.89 163.973C253.455 162.379 257.402 159.981 260.712 156.776L260.713 156.775C264.129 153.467 266.787 149.421 268.693 144.657C270.713 139.761 271.709 134.157 271.709 127.864V52.3213V51.2131H270.601H249.746H248.637V52.3213V128.019C248.637 133.409 247.341 137.444 244.892 140.269C242.464 143.071 239.036 144.521 234.452 144.521C230.353 144.521 226.955 143.356 224.19 141.068L224.19 141.068C221.429 138.783 219.363 135.302 218.065 130.509L217.736 129.296L216.574 129.774L197.418 137.653L196.483 138.038L196.781 139.005C199.419 147.554 204.082 154.301 210.78 159.193Z" fill="white" stroke="#202124" stroke-width="2.2163"/>
<path d="M311.621 115.765C309.778 115.127 307.606 114.528 305.111 113.965C301.797 113.111 297.633 112.697 292.646 112.697C288.118 112.697 283.884 113.329 279.954 114.602C276.126 115.774 272.754 117.537 269.856 119.899C266.952 122.263 264.689 125.119 263.073 128.456C261.444 131.717 260.642 135.39 260.642 139.45C260.642 143.404 261.39 147.063 262.902 150.411C264.407 153.745 266.51 156.603 269.205 158.974C271.887 161.335 274.993 163.153 278.511 164.433C282.142 165.82 285.98 166.511 290.02 166.511C295.406 166.511 299.901 165.457 303.423 163.257C306.58 161.343 309.315 159.078 311.621 156.459V162.932V164.04H312.729H332.657H333.765V162.932V117.513C333.765 106.489 330.609 98.0071 324.126 92.2777C317.673 86.472 308.408 83.6545 296.508 83.6545C282.297 83.6545 270.998 88.8323 262.736 99.212L261.994 100.144L262.977 100.817L277.653 110.858L278.49 111.43L279.134 110.649C283.785 105.008 289.404 102.246 296.045 102.246C300.56 102.246 304.262 103.516 307.228 106.004L307.236 106.01L307.244 106.017C310.182 108.387 311.621 111.368 311.621 115.042V115.765ZM305.003 130.627L305.029 130.635L305.055 130.641C307.322 131.184 309.505 131.933 311.605 132.888C311.521 134.756 311.094 136.59 310.32 138.395L310.315 138.408L310.31 138.421C309.545 140.334 308.394 142.063 306.847 143.61C305.413 145.045 303.629 146.257 301.476 147.238C299.361 148.101 297.04 148.538 294.5 148.538C291.431 148.538 288.727 147.68 286.351 145.972C284.164 144.329 283.095 142.188 283.095 139.45C283.095 136.722 284.21 134.457 286.541 132.592L286.545 132.588C288.959 130.638 292.438 129.59 297.127 129.59C300.025 129.59 302.648 129.939 305.003 130.627Z" fill="white" stroke="#202124" stroke-width="2.2163"/>
<path d="M326.344 86.1263H325.236V87.2344V162.932V164.04H326.344H346.582H347.69V162.932V126.165C347.69 123.055 348.041 120.163 348.736 117.482L348.736 117.482C349.431 114.801 350.415 112.555 351.668 110.724L351.675 110.713L351.682 110.702C352.934 108.775 354.458 107.306 356.252 106.268L356.27 106.257L356.288 106.246C358.049 105.134 360.104 104.563 362.494 104.563C366.704 104.563 369.674 105.78 371.618 108.04C373.589 110.332 374.671 113.888 374.671 118.904V162.932V164.04H375.779H396.017H397.125V162.932V126.165C397.125 123.062 397.474 120.176 398.166 117.5C398.962 114.818 399.996 112.566 401.253 110.729C402.605 108.8 404.23 107.325 406.128 106.28L406.147 106.27L406.164 106.259C408.033 105.138 410.201 104.563 412.701 104.563C416.688 104.563 419.498 105.768 421.344 108.02C423.225 110.314 424.26 113.878 424.26 118.904V162.932V164.04H425.368H445.606H446.714V162.932V115.196C446.714 110.675 446.136 106.497 444.967 102.672C443.798 98.7402 442.034 95.3595 439.663 92.5531C437.381 89.732 434.456 87.5709 430.912 86.0653C427.342 84.4451 423.166 83.6545 418.417 83.6545C412.072 83.6545 406.604 85.083 402.068 87.9966C398.249 90.3622 395.147 93.1731 392.783 96.4352C391.002 93.0898 388.364 90.2337 384.901 87.8647C380.766 85.0358 375.696 83.6545 369.754 83.6545C364.634 83.6545 359.918 84.8299 355.626 87.1904L355.626 87.1903L355.615 87.1962C351.886 89.2999 348.827 92.0122 346.454 95.3318V87.2344V86.1263H345.346H326.344Z" fill="white" stroke="#202124" stroke-width="2.2163"/>
<path d="M456.216 164.603L456.224 164.606C460.265 165.883 464.809 166.511 469.843 166.511C474.784 166.511 479.283 165.828 483.329 164.445C487.448 163.071 490.969 161.21 493.871 158.848L493.874 158.845C496.861 156.39 499.176 153.599 500.797 150.465L500.797 150.464C502.422 147.323 503.238 144.008 503.238 140.532C503.238 134.693 501.229 129.633 497.228 125.412C493.319 121.073 487.37 118.009 479.525 116.126L479.525 116.126L467.953 113.349C464.924 112.541 462.557 111.646 460.816 110.681C459.347 109.814 458.747 108.757 458.747 107.472C458.747 106.163 459.465 104.986 461.398 103.973L461.416 103.964L461.434 103.954C463.403 102.828 465.731 102.246 468.453 102.246C471.05 102.246 473.667 102.87 476.315 104.145C478.852 105.366 480.789 107.337 482.131 110.116L482.583 111.053L483.547 110.661L501.003 103.555L502.053 103.127L501.602 102.088C498.829 95.6869 494.482 91.0022 488.568 88.0971C482.73 85.1264 476.119 83.6545 468.762 83.6545C464.342 83.6545 460.17 84.233 456.251 85.397C452.437 86.4579 449.073 88.0546 446.177 90.198C443.271 92.2448 440.948 94.7831 439.22 97.8075L439.213 97.8206L439.205 97.834C437.564 100.899 436.757 104.379 436.757 108.244C436.757 111.693 437.458 114.763 438.899 117.423L438.899 117.423C440.301 120.01 442.085 122.23 444.254 124.073C446.392 125.89 448.743 127.387 451.307 128.563L451.315 128.566L451.323 128.57C453.955 129.727 456.498 130.576 458.948 131.109L458.948 131.109L469.6 133.425C474.001 134.449 476.889 135.591 478.439 136.777L478.468 136.799L478.498 136.82C480.073 137.869 480.785 139.186 480.785 140.841C480.785 142.174 480.037 143.467 478.066 144.687C476.141 145.878 473.434 146.529 469.843 146.529C466.447 146.529 463.361 145.661 460.56 143.927C457.891 142.11 455.698 139.359 454.016 135.599L453.571 134.604L452.569 135.032L434.494 142.756L433.512 143.176L433.895 144.173C434.966 146.955 436.509 149.718 438.515 152.462L438.521 152.47L438.528 152.479C440.552 155.143 442.998 157.533 445.857 159.651L445.875 159.665L445.894 159.678C448.876 161.702 452.321 163.34 456.216 164.603Z" fill="white" stroke="#202124" stroke-width="2.2163"/>
<path d="M508.265 73.2671L508.869 72.3443L516.022 61.4047C514.086 60.4693 512.392 59.0828 510.94 57.2677L510.921 57.2441L510.904 57.2196C509.208 54.8459 508.38 52.039 508.38 48.8512C508.38 44.856 509.779 41.4312 512.567 38.6442C512.567 38.6442 512.567 38.6441 512.567 38.6441M508.265 73.2671L532.352 39.4277C529.776 36.75 526.636 35.4111 522.928 35.4111C519.22 35.4111 516.027 36.75 513.35 39.4277L512.567 38.6441M508.265 73.2671L509.185 73.8752L518.3 79.9001L519.216 80.5055L519.83 79.5953L533.264 59.6765C534.525 57.8879 535.493 56.1767 536.149 54.5441C536.94 52.8393 537.322 50.9344 537.322 48.8512C537.322 44.8594 535.924 41.4372 533.143 38.6518M508.265 73.2671L533.143 38.6518M512.567 38.6441C515.447 35.7635 518.919 34.303 522.928 34.303C526.934 34.303 530.36 35.7626 533.143 38.6518M512.567 38.6441L533.143 38.6518" fill="white" stroke="#202124" stroke-width="2.2163"/>
<path d="M551.615 163.638V164.746H552.723H623.014H624.123V163.638V145.872V144.764H623.014H581.374C585.406 140.821 589.043 137.228 592.283 133.988L605.569 120.702L605.569 120.702L605.577 120.693C610.272 115.895 614.24 110.726 617.481 105.187C620.879 99.4518 622.578 93.1806 622.578 86.3958C622.578 81.9277 621.726 77.7585 620.012 73.9015C618.305 69.9549 615.9 66.5338 612.801 63.6481C609.694 60.7547 605.906 58.5199 601.461 56.9311C596.994 55.2311 592.02 54.3909 586.556 54.3909C581.5 54.3909 576.885 55.1807 572.725 56.7791C568.715 58.257 565.212 60.2173 562.225 62.6682C559.251 65.0068 556.798 67.7239 554.877 70.8191C552.979 73.7727 551.592 76.6974 550.734 79.5929L550.45 80.5515L551.375 80.9322L569.758 88.5018L570.909 88.9759L571.247 87.7774C572.12 84.676 573.767 81.9044 576.216 79.4551L576.224 79.4475L576.231 79.4397C578.548 77.0304 581.835 75.7631 586.247 75.7631C590.669 75.7631 594.024 76.9859 596.448 79.316L596.456 79.3237L596.464 79.3313C598.932 81.6102 600.123 84.2575 600.123 87.3227C600.123 88.9824 599.928 90.5304 599.546 91.9713C599.158 93.3238 598.573 94.7413 597.782 96.2249L597.776 96.2375L597.769 96.2503C597.098 97.5911 596.127 99.0081 594.833 100.501L594.819 100.517L594.806 100.534C593.578 102.067 592.146 103.807 590.506 105.754C589.695 106.666 588.526 107.937 586.996 109.57L581.756 114.81L575.421 121.144C574.659 121.907 573.901 122.664 573.15 123.415C571.67 124.895 570.213 126.352 568.779 127.786C563.632 132.933 558.022 138.493 551.947 144.464L551.615 144.789V145.254V163.638Z" fill="white" stroke="#202124" stroke-width="2.2163"/>
<mask id="path-10-outside-1_943_4979" maskUnits="userSpaceOnUse" x="624.566" y="54.4072" width="88" height="112" fill="black">
<rect fill="white" x="624.566" y="54.4072" width="88" height="112"/>
<path d="M676.003 163.407V143.842H626.936V127.383L674.14 57.1976H696.189V124.898H709.543V143.842H696.189V163.407H676.003ZM676.003 87.4766H674.761L649.451 124.898H676.003V87.4766Z"/>
</mask>
<path d="M676.003 163.407V143.842H626.936V127.383L674.14 57.1976H696.189V124.898H709.543V143.842H696.189V163.407H676.003ZM676.003 87.4766H674.761L649.451 124.898H676.003V87.4766Z" fill="white"/>
<path d="M676.003 163.407H673.787V165.624H676.003V163.407ZM676.003 143.842H678.22V141.626H676.003V143.842ZM626.936 143.842H624.719V146.059H626.936V143.842ZM626.936 127.383L625.097 126.146L624.719 126.707V127.383H626.936ZM674.14 57.1976V54.9813H672.96L672.301 55.9607L674.14 57.1976ZM696.189 57.1976H698.406V54.9813H696.189V57.1976ZM696.189 124.898H693.973V127.115H696.189V124.898ZM709.543 124.898H711.76V122.682H709.543V124.898ZM709.543 143.842V146.059H711.76V143.842H709.543ZM696.189 143.842V141.626H693.973V143.842H696.189ZM696.189 163.407V165.624H698.406V163.407H696.189ZM676.003 87.4766H678.22V85.2603H676.003V87.4766ZM674.761 87.4766V85.2603H673.584L672.925 86.235L674.761 87.4766ZM649.451 124.898L647.615 123.657L645.276 127.115H649.451V124.898ZM676.003 124.898V127.115H678.22V124.898H676.003ZM678.22 163.407V143.842H673.787V163.407H678.22ZM676.003 141.626H626.936V146.059H676.003V141.626ZM629.152 143.842V127.383H624.719V143.842H629.152ZM628.775 128.62L675.979 58.4344L672.301 55.9607L625.097 126.146L628.775 128.62ZM674.14 59.4139H696.189V54.9813H674.14V59.4139ZM693.973 57.1976V124.898H698.406V57.1976H693.973ZM696.189 127.115H709.543V122.682H696.189V127.115ZM707.327 124.898V143.842H711.76V124.898H707.327ZM709.543 141.626H696.189V146.059H709.543V141.626ZM693.973 143.842V163.407H698.406V143.842H693.973ZM696.189 161.191H676.003V165.624H696.189V161.191ZM676.003 85.2603H674.761V89.6929H676.003V85.2603ZM672.925 86.235L647.615 123.657L651.287 126.14L676.597 88.7183L672.925 86.235ZM649.451 127.115H676.003V122.682H649.451V127.115ZM678.22 124.898V87.4766H673.787V124.898H678.22Z" fill="#202124" mask="url(#path-10-outside-1_943_4979)"/>
</g>
<defs>
<clipPath id="clip0_943_4979">
<rect width="707" height="202.792" fill="white"/>
</clipPath>
</defs>
</svg>
