<svg width="1998" height="1998" viewBox="0 0 1998 1998" fill="none" xmlns="http://www.w3.org/2000/svg">
<g opacity="0.1">
<path d="M1 1H1997.8" stroke="#EEEEEE" stroke-width="2"/>
<path d="M1 85H1997.8" stroke="#EEEEEE" stroke-width="2"/>
<path d="M1 169H1997.8" stroke="#EEEEEE" stroke-width="2"/>
<path d="M1 253H1997.8" stroke="#EEEEEE" stroke-width="2"/>
<path d="M1 337H1997.8" stroke="#EEEEEE" stroke-width="2"/>
<path d="M1 421H1997.8" stroke="#EEEEEE" stroke-width="2"/>
<path d="M1 505H1997.8" stroke="#EEEEEE" stroke-width="2"/>
<path d="M1 589H1997.8" stroke="#EEEEEE" stroke-width="2"/>
<path d="M1 673H1997.8" stroke="#EEEEEE" stroke-width="2"/>
<path d="M1 757H1997.8" stroke="#EEEEEE" stroke-width="2"/>
<path d="M1 841H1997.8" stroke="#EEEEEE" stroke-width="2"/>
<path d="M1 925H1997.8" stroke="#EEEEEE" stroke-width="2"/>
<path d="M1 1009H1997.8" stroke="#EEEEEE" stroke-width="2"/>
<path d="M1 1093H1997.8" stroke="#EEEEEE" stroke-width="2"/>
<path d="M1 1177H1997.8" stroke="#EEEEEE" stroke-width="2"/>
<path d="M1 1261H1997.8" stroke="#EEEEEE" stroke-width="2"/>
<path d="M1 1345H1997.8" stroke="#EEEEEE" stroke-width="2"/>
<path d="M1 1429H1997.8" stroke="#EEEEEE" stroke-width="2"/>
<path d="M1 1513H1997.8" stroke="#EEEEEE" stroke-width="2"/>
<path d="M1 1597H1997.8" stroke="#EEEEEE" stroke-width="2"/>
<path d="M1 1681H1997.8" stroke="#EEEEEE" stroke-width="2"/>
<path d="M1 1765H1997.8" stroke="#EEEEEE" stroke-width="2"/>
<path d="M1 1849H1997.8" stroke="#EEEEEE" stroke-width="2"/>
<path d="M1 1933H1997.8" stroke="#EEEEEE" stroke-width="2"/>
<path d="M1.00024 1L1.00016 1997.8" stroke="#EEEEEE" stroke-width="2"/>
<path d="M85.0002 1L85.0002 1997.8" stroke="#EEEEEE" stroke-width="2"/>
<path d="M169 1L169 1997.8" stroke="#EEEEEE" stroke-width="2"/>
<path d="M253 1L253 1997.8" stroke="#EEEEEE" stroke-width="2"/>
<path d="M337 1L337 1997.8" stroke="#EEEEEE" stroke-width="2"/>
<path d="M421 1L421 1997.8" stroke="#EEEEEE" stroke-width="2"/>
<path d="M505 1L505 1997.8" stroke="#EEEEEE" stroke-width="2"/>
<path d="M589 1L589 1997.8" stroke="#EEEEEE" stroke-width="2"/>
<path d="M673 1L673 1997.8" stroke="#EEEEEE" stroke-width="2"/>
<path d="M757 1L757 1997.8" stroke="#EEEEEE" stroke-width="2"/>
<path d="M841 1L841 1997.8" stroke="#EEEEEE" stroke-width="2"/>
<path d="M925 1L925 1997.8" stroke="#EEEEEE" stroke-width="2"/>
<path d="M1009 1L1009 1997.8" stroke="#EEEEEE" stroke-width="2"/>
<path d="M1093 1L1093 1997.8" stroke="#EEEEEE" stroke-width="2"/>
<path d="M1177 1L1177 1997.8" stroke="#EEEEEE" stroke-width="2"/>
<path d="M1261 1L1261 1997.8" stroke="#EEEEEE" stroke-width="2"/>
<path d="M1345 1L1345 1997.8" stroke="#EEEEEE" stroke-width="2"/>
<path d="M1429 1L1429 1997.8" stroke="#EEEEEE" stroke-width="2"/>
<path d="M1513 1L1513 1997.8" stroke="#EEEEEE" stroke-width="2"/>
<path d="M1597 1L1597 1997.8" stroke="#EEEEEE" stroke-width="2"/>
<path d="M1681 1L1681 1997.8" stroke="#EEEEEE" stroke-width="2"/>
<path d="M1765 1L1765 1997.8" stroke="#EEEEEE" stroke-width="2"/>
<path d="M1849 1L1849 1997.8" stroke="#EEEEEE" stroke-width="2"/>
<path d="M1933 1L1933 1997.8" stroke="#EEEEEE" stroke-width="2"/>
</g>
</svg>
