<svg width="267" height="260" viewBox="0 0 267 260" fill="none" xmlns="http://www.w3.org/2000/svg">
<path d="M53.1233 349.352L77.0165 212.105C77.0658 211.821 77.244 211.576 77.4988 211.442L95.075 202.187L114.976 68.9659C115.006 68.7648 115.101 68.5791 115.246 68.4374L177.391 7.97266L186.96 17.2686C187.129 17.4331 187.23 17.6559 187.241 17.8918L193.404 150.41L223.062 167.595C223.316 167.742 223.485 168 223.519 168.291L244.695 349.403C244.76 349.955 244.328 350.44 243.773 350.44H204.923H54.0385C53.4617 350.44 53.0244 349.92 53.1233 349.352Z" fill="#202124"/>
<path d="M193.404 150.41L223.062 167.595C223.316 167.742 223.485 168 223.519 168.291L244.695 349.403C244.76 349.955 244.328 350.44 243.773 350.44H204.923M193.404 150.41L204.923 350.44M193.404 150.41L187.241 17.8918C187.23 17.6559 187.129 17.4331 186.96 17.2686L177.391 7.97266M193.404 150.41L181.667 156.59M204.923 350.44H54.0385C53.4617 350.44 53.0244 349.92 53.1233 349.352L77.0165 212.105C77.0658 211.821 77.244 211.576 77.4988 211.442L181.667 156.59M95.075 202.187L114.976 68.9659C115.006 68.7648 115.101 68.5791 115.246 68.4374L177.391 7.97266M177.391 7.97266L181.667 156.59" stroke="white" stroke-width="1.83972"/>
<path d="M132.159 67.251L132.439 84.1074L142.272 75.3983L132.159 67.251Z" fill="url(#paint0_linear_692_6422)" stroke="white" stroke-width="1.83972"/>
<path d="M186.942 17.5247L177.379 7.97266L181.641 156.213L193.109 150.032L186.942 17.5247Z" fill="url(#paint1_linear_692_6422)" stroke="white" stroke-width="1.83972"/>
<path d="M222.602 168.671L194.436 152.35C194.434 152.349 194.433 152.349 194.432 152.348C194.43 152.349 194.429 152.349 194.427 152.351C194.425 152.352 194.423 152.353 194.422 152.354C194.422 152.355 194.422 152.357 194.422 152.359L205.772 349.53C205.772 349.531 205.772 349.531 205.772 349.532L205.772 349.533L205.773 349.533C205.773 349.534 205.773 349.535 205.775 349.536C205.776 349.537 205.777 349.538 205.778 349.538L205.779 349.538C205.779 349.538 205.78 349.539 205.781 349.539H243.754L243.756 349.538L222.602 168.671ZM222.602 168.671C222.604 168.672 222.606 168.675 222.606 168.677L243.763 349.528L243.763 349.531M222.602 168.671L243.763 349.531M243.763 349.531L243.763 349.532L243.763 349.531Z" fill="url(#paint2_linear_692_6422)" stroke="white" stroke-width="1.83972"/>
<path d="M131.955 66.5299C131.955 66.5273 131.956 66.5249 131.958 66.5232L152.013 48.2747C152.015 48.2732 152.016 48.272 152.017 48.2711C152.019 48.2715 152.021 48.2722 152.023 48.2731C152.025 48.274 152.027 48.275 152.028 48.276C152.028 48.2763 152.028 48.2766 152.028 48.2769C152.029 48.2782 152.029 48.2797 152.029 48.2814V67.4095C152.029 67.4121 152.027 67.4146 152.025 67.4164L131.97 85.1434C131.968 85.1449 131.967 85.146 131.966 85.1469C131.964 85.1465 131.962 85.1458 131.96 85.1449C131.958 85.144 131.956 85.143 131.955 85.142C131.955 85.1406 131.955 85.1388 131.955 85.1366V66.5299Z" stroke="white" stroke-width="1.83972"/>
<line x1="177.74" y1="18.8055" x2="187.963" y2="25.9619" stroke="white" stroke-width="1.83972"/>
<line x1="177.74" y1="39.2522" x2="187.963" y2="46.4086" stroke="white" stroke-width="1.83972"/>
<line x1="179.103" y1="63.1062" x2="189.326" y2="70.2626" stroke="white" stroke-width="1.83972"/>
<line x1="180.466" y1="88.6656" x2="190.689" y2="95.8221" stroke="white" stroke-width="1.83972"/>
<line x1="180.806" y1="116.609" x2="191.03" y2="123.765" stroke="white" stroke-width="1.83972"/>
<line x1="194.048" y1="168.717" x2="227.103" y2="188.823" stroke="white" stroke-width="1.83972"/>
<line x1="211.186" y1="160.918" x2="224.841" y2="350.732" stroke="white" stroke-width="1.83972"/>
<line x1="196.774" y1="197.683" x2="229.83" y2="217.789" stroke="white" stroke-width="1.83972"/>
<line x1="197.742" y1="230.028" x2="232.502" y2="248.089" stroke="white" stroke-width="1.83972"/>
<line x1="180.806" y1="140.464" x2="191.03" y2="147.62" stroke="white" stroke-width="1.83972"/>
<line x1="182.902" y1="11.6886" x2="187.752" y2="153.371" stroke="white" stroke-width="1.83972"/>
<path d="M19.6811 163.548C18.0217 170.51 14.3139 175.626 8.5575 178.894C6.42182 180.107 4.13671 180.881 1.70216 181.217C1.54338 181.242 1.42041 181.298 1.33324 181.385C1.31151 181.408 1.29656 181.437 1.29005 181.468C1.28354 181.499 1.28571 181.531 1.29633 181.561C1.30694 181.591 1.32558 181.617 1.35022 181.637C1.37485 181.657 1.40452 181.67 1.43597 181.674C9.91176 182.719 16.5476 189.175 19.032 197.025C19.2655 197.776 19.4243 198.867 19.6437 199.796C19.6504 199.83 19.6691 199.861 19.6963 199.883C19.7236 199.905 19.7577 199.917 19.7928 199.916C19.8279 199.916 19.8616 199.903 19.8882 199.88C19.9147 199.857 19.9323 199.826 19.9379 199.791C21.7218 190.14 28.3577 183.391 37.8889 181.702C37.9422 181.694 37.9909 181.668 38.0261 181.627C38.0614 181.586 38.0807 181.534 38.0807 181.48C38.0807 181.427 38.0614 181.375 38.0261 181.334C37.9909 181.293 37.9422 181.267 37.8889 181.259C28.9601 179.776 21.4183 172.662 20.022 163.562C19.9317 162.98 19.8181 162.976 19.6811 163.548Z" fill="#EFEFEF" stroke="#EFEFEF" stroke-width="1.24727"/>
<path d="M253.325 53.6505C252.163 58.5243 249.568 62.1051 245.538 64.3929C244.043 65.2418 242.444 65.7838 240.74 66.0189C240.628 66.0363 240.542 66.0755 240.481 66.1365C240.466 66.1527 240.456 66.1727 240.451 66.1944C240.447 66.2161 240.448 66.2387 240.455 66.2596C240.463 66.2805 240.476 66.299 240.493 66.313C240.51 66.327 240.531 66.3359 240.553 66.3389C246.486 67.0703 251.131 71.5893 252.87 77.0846C253.034 77.6103 253.145 78.3743 253.299 79.0241C253.303 79.0481 253.316 79.0698 253.335 79.0853C253.355 79.1007 253.378 79.109 253.403 79.1086C253.428 79.1082 253.451 79.0992 253.47 79.0831C253.488 79.0671 253.501 79.045 253.505 79.0208C254.753 72.2652 259.398 67.5405 266.07 66.3585C266.108 66.3531 266.142 66.3344 266.166 66.306C266.191 66.2775 266.205 66.2411 266.205 66.2034C266.205 66.1658 266.191 66.1294 266.166 66.1009C266.142 66.0724 266.108 66.0537 266.07 66.0483C259.82 65.01 254.541 60.0306 253.563 53.6603C253.5 53.2532 253.421 53.25 253.325 53.6505Z" stroke="#EFEFEF" stroke-width="1.22648"/>
<path d="M84.6853 0.170266C84.0215 2.95529 82.5384 5.00146 80.2358 6.30877C79.3816 6.79388 78.4675 7.1036 77.4937 7.23794C77.4302 7.24789 77.381 7.27028 77.3461 7.30511C77.3374 7.31435 77.3315 7.3258 77.3289 7.33821C77.3263 7.35063 77.3271 7.36351 77.3314 7.37546C77.3356 7.38741 77.3431 7.39796 77.3529 7.40596C77.3628 7.41396 77.3747 7.41909 77.3872 7.42079C80.7775 7.83873 83.4319 10.421 84.4256 13.5612C84.519 13.8615 84.5825 14.2981 84.6703 14.6694C84.673 14.6832 84.6805 14.6956 84.6914 14.7044C84.7023 14.7132 84.7159 14.718 84.73 14.7177C84.744 14.7175 84.7575 14.7124 84.7681 14.7032C84.7787 14.694 84.7858 14.6814 84.788 14.6676C85.5016 10.8072 88.1559 8.1074 91.9684 7.43198C91.9897 7.42889 92.0092 7.41822 92.0233 7.40195C92.0374 7.38567 92.0451 7.36487 92.0451 7.34336C92.0451 7.32184 92.0374 7.30104 92.0233 7.28477C92.0092 7.26849 91.9897 7.25783 91.9684 7.25473C88.3969 6.6614 85.3802 3.81605 84.8216 0.175864C84.7855 -0.0567397 84.7401 -0.0586067 84.6853 0.170266Z" fill="#EFEFEF"/>
<defs>
<linearGradient id="paint0_linear_692_6422" x1="137.215" y1="67.251" x2="137.215" y2="84.1074" gradientUnits="userSpaceOnUse">
<stop stop-color="#F0B501"/>
<stop offset="1" stop-color="#2BA24C"/>
</linearGradient>
<linearGradient id="paint1_linear_692_6422" x1="185.116" y1="7.97266" x2="185.116" y2="156.591" gradientUnits="userSpaceOnUse">
<stop stop-color="#F0B501"/>
<stop offset="0.46" stop-color="#2BA24C"/>
<stop offset="1" stop-color="#3B7DED"/>
</linearGradient>
<linearGradient id="paint2_linear_692_6422" x1="207.712" y1="128.098" x2="231.908" y2="413.162" gradientUnits="userSpaceOnUse">
<stop stop-color="#3B7DED"/>
<stop offset="0.491667" stop-color="#926FD9"/>
<stop offset="0.986667" stop-color="#E43E2B"/>
</linearGradient>
</defs>
</svg>
