<svg width="603" height="292" viewBox="0 0 603 292" fill="none" xmlns="http://www.w3.org/2000/svg">
<path d="M30.5139 103.341L194.508 8.75147C194.508 8.75145 194.508 8.75142 194.508 8.7514C204.951 2.72866 217.362 1.09664 229.01 4.21469C240.658 7.33273 250.588 14.9451 256.617 25.3763C262.645 35.8073 264.279 48.203 261.158 59.8367C258.037 71.4701 250.418 81.3894 239.976 87.4123C239.975 87.4125 239.975 87.4127 239.974 87.4129L143.131 143.201L30.5139 103.341Z" fill="url(#paint0_linear_183_698)" stroke="#EEEEEE" stroke-width="5.33333"/>
<path d="M25.3995 184.944L25.3994 184.944C20.2285 181.962 15.6964 177.992 12.0618 173.26C8.42716 168.529 5.7612 163.128 4.21593 157.368C2.67067 151.607 2.27635 145.599 3.05548 139.687C3.83461 133.774 5.77191 128.072 8.75693 122.907C11.742 117.742 15.7162 113.215 20.4529 109.584C25.1897 105.953 30.5963 103.29 36.3638 101.746C42.1314 100.202 48.1469 99.8079 54.0669 100.586C59.9869 101.365 65.6953 103.3 70.8662 106.283L239.867 203.76C239.868 203.76 239.869 203.761 239.87 203.761C248.505 208.782 255.245 216.502 259.049 225.729C262.854 234.958 263.511 245.181 260.919 254.82C258.328 264.458 252.631 272.977 244.708 279.06C236.787 285.141 227.081 288.449 217.089 288.471C209.127 288.478 201.304 286.392 194.405 282.424L25.3995 184.944Z" fill="url(#paint1_linear_183_698)" stroke="#EEEEEE" stroke-width="5.33333"/>
<path d="M571.973 187.747L407.91 282.376L407.908 282.377C401.589 286.029 394.488 288.1 387.214 288.426L385.233 288.422C375.24 288.4 365.532 285.092 357.61 279.01C349.687 272.927 343.99 264.409 341.399 254.77C338.807 245.131 339.464 234.908 343.269 225.68C347.073 216.453 353.813 208.733 362.447 203.712C362.449 203.712 362.45 203.711 362.451 203.71L460.695 147.039L571.973 187.747Z" fill="url(#paint2_linear_183_698)" stroke="#EEEEEE" stroke-width="5.33333"/>
<path d="M531.39 184.901L531.383 184.897L531.377 184.893L362.392 87.4397C352.498 81.1556 345.417 71.2961 342.627 59.9202C339.834 48.5267 341.562 36.4952 347.45 26.3458C353.339 16.1962 362.931 8.71591 374.218 5.47269C385.489 2.23409 397.577 3.47171 407.955 8.92548L576.915 106.379C576.915 106.38 576.916 106.38 576.916 106.38C585.568 111.388 592.326 119.104 596.143 128.335C599.961 137.566 600.626 147.797 598.035 157.444C595.444 167.09 589.741 175.615 581.809 181.698C573.877 187.78 564.158 191.081 554.158 191.089C546.154 191.074 538.298 188.939 531.39 184.901Z" fill="url(#paint3_linear_183_698)" stroke="#EEEEEE" stroke-width="5.33333"/>
<defs>
<linearGradient id="paint0_linear_183_698" x1="144.77" y1="0" x2="144.77" y2="146.124" gradientUnits="userSpaceOnUse">
<stop stop-color="#FDC932"/>
<stop offset="1" stop-color="#E84436"/>
</linearGradient>
<linearGradient id="paint1_linear_183_698" x1="132.572" y1="97.5312" x2="132.572" y2="291.138" gradientUnits="userSpaceOnUse">
<stop stop-color="#5480E9"/>
<stop offset="1" stop-color="#CD526D"/>
</linearGradient>
<linearGradient id="paint2_linear_183_698" x1="457.713" y1="144.106" x2="457.713" y2="291.138" gradientUnits="userSpaceOnUse">
<stop stop-color="#FDC932"/>
<stop offset="1" stop-color="#34A653"/>
</linearGradient>
<linearGradient id="paint3_linear_183_698" x1="470.455" y1="1.03613" x2="470.455" y2="193.755" gradientUnits="userSpaceOnUse">
<stop stop-color="#0F9D58"/>
<stop offset="1" stop-color="#4383F2"/>
</linearGradient>
</defs>
</svg>
