<svg width="161" height="129" viewBox="0 0 161 129" fill="none" xmlns="http://www.w3.org/2000/svg">
<mask id="path-1-outside-1_797_11056" maskUnits="userSpaceOnUse" x="0.418945" y="0.927734" width="112" height="128" fill="black">
<rect fill="white" x="0.418945" y="0.927734" width="112" height="128"/>
<path fill-rule="evenodd" clip-rule="evenodd" d="M61.4244 1.92773H105.878V7.45242H111.403V32.8739H84.0346V37.3762H100.432V43.7856H78.7262V53.8519H89.5004V65.6091H83.1892H83.1696V60.34H78.6868V79.352H73.1031V87.5113H67.7356V93.0163H62.2699V113.935H67.6963V120.148H55.939V111.378H50.4143V98.4623H45.9512V103.889H40.4461V109.315H35.0197V121.366H40.4461V127.579H28.6495V98.423H23.2624V93.0949H17.7769V87.5309H12.3505V82.1832H6.84539V76.5405H1.41895V42.9795H7.69082V53.9109H13.1369V59.357H18.5437V64.7637H28.6495V59.357H34.1546V53.8519H42.3336V48.3076H50.4339V42.9599H55.9783V7.43276H61.3851V1.92773H61.4244ZM66.6894 9.86725H73.1579V16.375H66.6697L66.6894 9.86725Z"/>
</mask>
<path fill-rule="evenodd" clip-rule="evenodd" d="M61.4244 1.92773H105.878V7.45242H111.403V32.8739H84.0346V37.3762H100.432V43.7856H78.7262V53.8519H89.5004V65.6091H83.1892H83.1696V60.34H78.6868V79.352H73.1031V87.5113H67.7356V93.0163H62.2699V113.935H67.6963V120.148H55.939V111.378H50.4143V98.4623H45.9512V103.889H40.4461V109.315H35.0197V121.366H40.4461V127.579H28.6495V98.423H23.2624V93.0949H17.7769V87.5309H12.3505V82.1832H6.84539V76.5405H1.41895V42.9795H7.69082V53.9109H13.1369V59.357H18.5437V64.7637H28.6495V59.357H34.1546V53.8519H42.3336V48.3076H50.4339V42.9599H55.9783V7.43276H61.3851V1.92773H61.4244ZM66.6894 9.86725H73.1579V16.375H66.6697L66.6894 9.86725Z" fill="url(#paint0_linear_797_11056)"/>
<path d="M105.878 1.92773H106.864C106.864 1.38346 106.422 0.942236 105.878 0.942236V1.92773ZM105.878 7.45242H104.893C104.893 7.9967 105.334 8.43792 105.878 8.43792V7.45242ZM111.403 7.45242H112.388C112.388 6.90815 111.947 6.46692 111.403 6.46692V7.45242ZM111.403 32.8739V33.8594C111.947 33.8594 112.388 33.4181 112.388 32.8739H111.403ZM84.0346 32.8739V31.8884C83.4904 31.8884 83.0491 32.3296 83.0491 32.8739H84.0346ZM84.0346 37.3762H83.0491C83.0491 37.9205 83.4904 38.3617 84.0346 38.3617V37.3762ZM100.432 37.3762H101.417C101.417 36.8319 100.976 36.3907 100.432 36.3907V37.3762ZM100.432 43.7856V44.7711C100.976 44.7711 101.417 44.3299 101.417 43.7856H100.432ZM78.7262 43.7856V42.8001C78.1819 42.8001 77.7407 43.2413 77.7407 43.7856H78.7262ZM78.7262 53.8519H77.7407C77.7407 54.3962 78.1819 54.8374 78.7262 54.8374V53.8519ZM89.5004 53.8519H90.4859C90.4859 53.3077 90.0447 52.8664 89.5004 52.8664V53.8519ZM89.5004 65.6091V66.5946C90.0447 66.5946 90.4859 66.1534 90.4859 65.6091H89.5004ZM83.1696 65.6091H82.1841C82.1841 66.1534 82.6253 66.5946 83.1696 66.5946V65.6091ZM83.1696 60.34H84.1551C84.1551 59.7957 83.7138 59.3545 83.1696 59.3545V60.34ZM78.6868 60.34V59.3545C78.1426 59.3545 77.7013 59.7957 77.7013 60.34H78.6868ZM78.6868 79.352V80.3375C79.2311 80.3375 79.6723 79.8963 79.6723 79.352H78.6868ZM73.1031 79.352V78.3665C72.5588 78.3665 72.1176 78.8077 72.1176 79.352H73.1031ZM73.1031 87.5113V88.4967C73.6474 88.4967 74.0886 88.0555 74.0886 87.5113H73.1031ZM67.7356 87.5113V86.5258C67.1914 86.5258 66.7501 86.967 66.7501 87.5113H67.7356ZM67.7356 93.0163V94.0018C68.2799 94.0018 68.7211 93.5606 68.7211 93.0163H67.7356ZM62.2699 93.0163V92.0308C61.7256 92.0308 61.2844 92.472 61.2844 93.0163H62.2699ZM62.2699 113.935H61.2844C61.2844 114.48 61.7256 114.921 62.2699 114.921V113.935ZM67.6963 113.935H68.6818C68.6818 113.391 68.2406 112.95 67.6963 112.95V113.935ZM67.6963 120.148V121.134C68.2406 121.134 68.6818 120.692 68.6818 120.148H67.6963ZM55.939 120.148H54.9535C54.9535 120.692 55.3947 121.134 55.939 121.134V120.148ZM55.939 111.378H56.9245C56.9245 110.834 56.4833 110.393 55.939 110.393V111.378ZM50.4143 111.378H49.4288C49.4288 111.923 49.87 112.364 50.4143 112.364V111.378ZM50.4143 98.4623H51.3998C51.3998 97.918 50.9585 97.4768 50.4143 97.4768V98.4623ZM45.9512 98.4623V97.4768C45.4069 97.4768 44.9657 97.918 44.9657 98.4623H45.9512ZM45.9512 103.889V104.874C46.4955 104.874 46.9367 104.433 46.9367 103.889H45.9512ZM40.4461 103.889V102.903C39.9018 102.903 39.4606 103.344 39.4606 103.889H40.4461ZM40.4461 109.315V110.301C40.9904 110.301 41.4316 109.859 41.4316 109.315H40.4461ZM35.0197 109.315V108.33C34.4754 108.33 34.0342 108.771 34.0342 109.315H35.0197ZM35.0197 121.366H34.0342C34.0342 121.91 34.4754 122.351 35.0197 122.351V121.366ZM40.4461 121.366H41.4316C41.4316 120.822 40.9904 120.38 40.4461 120.38V121.366ZM40.4461 127.579V128.564C40.9904 128.564 41.4316 128.123 41.4316 127.579H40.4461ZM28.6495 127.579H27.664C27.664 128.123 28.1052 128.564 28.6495 128.564V127.579ZM28.6495 98.423H29.635C29.635 97.8787 29.1938 97.4375 28.6495 97.4375V98.423ZM23.2624 98.423H22.2769C22.2769 98.9673 22.7181 99.4085 23.2624 99.4085V98.423ZM23.2624 93.0949H24.2479C24.2479 92.5507 23.8066 92.1094 23.2624 92.1094V93.0949ZM17.7769 93.0949H16.7914C16.7914 93.6392 17.2327 94.0804 17.7769 94.0804V93.0949ZM17.7769 87.5309H18.7624C18.7624 86.9866 18.3212 86.5454 17.7769 86.5454V87.5309ZM12.3505 87.5309H11.365C11.365 88.0752 11.8062 88.5164 12.3505 88.5164V87.5309ZM12.3505 82.1832H13.336C13.336 81.6389 12.8948 81.1977 12.3505 81.1977V82.1832ZM6.84539 82.1832H5.85989C5.85989 82.7274 6.30112 83.1687 6.84539 83.1687V82.1832ZM6.84539 76.5405H7.83089C7.83089 75.9962 7.38967 75.555 6.84539 75.555V76.5405ZM1.41895 76.5405H0.433447C0.433447 77.0848 0.87467 77.526 1.41895 77.526L1.41895 76.5405ZM1.41895 42.9795V41.994C0.87467 41.994 0.433447 42.4352 0.433447 42.9795H1.41895ZM7.69082 42.9795H8.67632C8.67632 42.4352 8.23509 41.994 7.69082 41.994V42.9795ZM7.69082 53.9109H6.70532C6.70532 54.4552 7.14654 54.8964 7.69082 54.8964V53.9109ZM13.1369 53.9109H14.1224C14.1224 53.3666 13.6812 52.9254 13.1369 52.9254V53.9109ZM13.1369 59.357H12.1514C12.1514 59.9012 12.5927 60.3425 13.1369 60.3425V59.357ZM18.5437 59.357H19.5292C19.5292 58.8127 19.088 58.3715 18.5437 58.3715V59.357ZM18.5437 64.7637H17.5582C17.5582 65.308 17.9994 65.7492 18.5437 65.7492V64.7637ZM28.6495 64.7637V65.7492C29.1938 65.7492 29.635 65.308 29.635 64.7637H28.6495ZM28.6495 59.357V58.3715C28.1052 58.3715 27.664 58.8127 27.664 59.357H28.6495ZM34.1546 59.357V60.3425C34.6989 60.3425 35.1401 59.9012 35.1401 59.357H34.1546ZM34.1546 53.8519V52.8664C33.6103 52.8664 33.1691 53.3077 33.1691 53.8519H34.1546ZM42.3336 53.8519V54.8374C42.8779 54.8374 43.3191 54.3962 43.3191 53.8519H42.3336ZM42.3336 48.3076V47.3221C41.7893 47.3221 41.3481 47.7633 41.3481 48.3076H42.3336ZM50.4339 48.3076V49.2931C50.9782 49.2931 51.4194 48.8519 51.4194 48.3076H50.4339ZM50.4339 42.9599V41.9744C49.8896 41.9744 49.4484 42.4156 49.4484 42.9599H50.4339ZM55.9783 42.9599V43.9453C56.5226 43.9453 56.9638 43.5041 56.9638 42.9599H55.9783ZM55.9783 7.43276V6.44726C55.4341 6.44726 54.9928 6.88849 54.9928 7.43276H55.9783ZM61.3851 7.43276V8.41826C61.9294 8.41826 62.3706 7.97704 62.3706 7.43276H61.3851ZM61.3851 1.92773V0.942236C60.8408 0.942236 60.3996 1.38346 60.3996 1.92773L61.3851 1.92773ZM73.1579 9.86725H74.1434C74.1434 9.32297 73.7021 8.88175 73.1579 8.88175V9.86725ZM66.6894 9.86725V8.88175C66.1463 8.88175 65.7055 9.32116 65.7039 9.86427L66.6894 9.86725ZM73.1579 16.375V17.3605C73.7021 17.3605 74.1434 16.9193 74.1434 16.375H73.1579ZM66.6697 16.375L65.6842 16.372C65.6834 16.6339 65.7869 16.8853 65.9718 17.0708C66.1567 17.2562 66.4078 17.3605 66.6697 17.3605V16.375ZM105.878 0.942236H61.4244V2.91323H105.878V0.942236ZM106.864 7.45242V1.92773H104.893V7.45242H106.864ZM111.403 6.46692H105.878V8.43792H111.403V6.46692ZM112.388 32.8739V7.45242H110.417V32.8739H112.388ZM84.0346 33.8594H111.403V31.8884H84.0346V33.8594ZM85.0201 37.3762V32.8739H83.0491V37.3762H85.0201ZM100.432 36.3907H84.0346V38.3617H100.432V36.3907ZM101.417 43.7856V37.3762H99.4465V43.7856H101.417ZM78.7262 44.7711H100.432V42.8001H78.7262V44.7711ZM79.7117 53.8519V43.7856H77.7407V53.8519H79.7117ZM89.5004 52.8664H78.7262V54.8374H89.5004V52.8664ZM90.4859 65.6091V53.8519H88.5149V65.6091H90.4859ZM83.1892 66.5946H89.5004V64.6236H83.1892V66.5946ZM83.1696 66.5946H83.1892V64.6236H83.1696V66.5946ZM82.1841 60.34V65.6091H84.1551V60.34H82.1841ZM78.6868 61.3255H83.1696V59.3545H78.6868V61.3255ZM79.6723 79.352V60.34H77.7013V79.352H79.6723ZM73.1031 80.3375H78.6868V78.3665H73.1031V80.3375ZM74.0886 87.5113V79.352H72.1176V87.5113H74.0886ZM67.7356 88.4967H73.1031V86.5258H67.7356V88.4967ZM68.7211 93.0163V87.5113H66.7501V93.0163H68.7211ZM62.2699 94.0018H67.7356V92.0308H62.2699V94.0018ZM63.2554 113.935V93.0163H61.2844V113.935H63.2554ZM67.6963 112.95H62.2699V114.921H67.6963V112.95ZM68.6818 120.148V113.935H66.7108V120.148H68.6818ZM55.939 121.134H67.6963V119.163H55.939V121.134ZM54.9535 111.378V120.148H56.9245V111.378H54.9535ZM50.4143 112.364H55.939V110.393H50.4143V112.364ZM49.4288 98.4623V111.378H51.3998V98.4623H49.4288ZM45.9512 99.4478H50.4143V97.4768H45.9512V99.4478ZM46.9367 103.889V98.4623H44.9657V103.889H46.9367ZM40.4461 104.874H45.9512V102.903H40.4461V104.874ZM41.4316 109.315V103.889H39.4606V109.315H41.4316ZM35.0197 110.301H40.4461V108.33H35.0197V110.301ZM36.0052 121.366V109.315H34.0342V121.366H36.0052ZM40.4461 120.38H35.0197V122.351H40.4461V120.38ZM41.4316 127.579V121.366H39.4606V127.579H41.4316ZM28.6495 128.564H40.4461V126.593H28.6495V128.564ZM27.664 98.423V127.579H29.635V98.423H27.664ZM23.2624 99.4085H28.6495V97.4375H23.2624V99.4085ZM22.2769 93.0949V98.423H24.2479V93.0949H22.2769ZM17.7769 94.0804H23.2624V92.1094H17.7769V94.0804ZM16.7914 87.5309V93.0949H18.7624V87.5309H16.7914ZM12.3505 88.5164H17.7769V86.5454H12.3505V88.5164ZM11.365 82.1832V87.5309H13.336V82.1832H11.365ZM6.84539 83.1687H12.3505V81.1977H6.84539V83.1687ZM5.85989 76.5405V82.1832H7.83089V76.5405H5.85989ZM1.41895 77.526H6.84539V75.555H1.41895V77.526ZM0.433447 42.9795V76.5405H2.40444V42.9795H0.433447ZM7.69082 41.994H1.41895V43.965H7.69082V41.994ZM8.67632 53.9109V42.9795H6.70532V53.9109H8.67632ZM13.1369 52.9254H7.69082V54.8964H13.1369V52.9254ZM14.1224 59.357V53.9109H12.1514V59.357H14.1224ZM18.5437 58.3715H13.1369V60.3425H18.5437V58.3715ZM19.5292 64.7637V59.357H17.5582V64.7637H19.5292ZM28.6495 63.7782H18.5437V65.7492H28.6495V63.7782ZM27.664 59.357V64.7637H29.635V59.357H27.664ZM34.1546 58.3715H28.6495V60.3425H34.1546V58.3715ZM33.1691 53.8519V59.357H35.1401V53.8519H33.1691ZM42.3336 52.8664H34.1546V54.8374H42.3336V52.8664ZM41.3481 48.3076V53.8519H43.3191V48.3076H41.3481ZM50.4339 47.3221H42.3336V49.2931H50.4339V47.3221ZM49.4484 42.9599V48.3076H51.4194V42.9599H49.4484ZM55.9783 41.9744H50.4339V43.9453H55.9783V41.9744ZM54.9928 7.43276V42.9599H56.9638V7.43276H54.9928ZM61.3851 6.44726H55.9783V8.41826H61.3851V6.44726ZM60.3996 1.92773V7.43276H62.3706V1.92773H60.3996ZM61.4244 0.942236H61.3851V2.91323H61.4244V0.942236ZM73.1579 8.88175H66.6894V10.8527H73.1579V8.88175ZM74.1434 16.375V9.86725H72.1724V16.375H74.1434ZM66.6697 17.3605H73.1579V15.3895H66.6697V17.3605ZM65.7039 9.86427L65.6842 16.372L67.6552 16.378L67.6749 9.87023L65.7039 9.86427Z" fill="white" mask="url(#path-1-outside-1_797_11056)"/>
<path d="M55.9372 11.7446H58.1555V14.4727H55.9372V11.7446Z" fill="#101010"/>
<path d="M55.9372 9.00146H58.1555V11.7247H55.9372V9.00146Z" fill="#101010"/>
<path d="M58.2507 9.00146H60.4651V11.7247H58.2507V9.00146Z" fill="#101010"/>
<path d="M60.4121 9.00146H62.6304V11.7247H60.4121V9.00146Z" fill="#101010"/>
<path d="M62.7221 9.00146H64.9404V11.7247H62.7221V9.00146Z" fill="#101010"/>
<path d="M64.9039 14.4873H67.106V17.9869H64.9039V14.4873Z" fill="#101010"/>
<path d="M64.8916 11.7446H67.106V14.4727H64.8916V11.7446Z" fill="#101010"/>
<path d="M64.8757 9.00146H67.0901V11.7247H64.8757V9.00146Z" fill="#101010"/>
<path d="M67.0527 17.1577H69.271V19.8858H67.0527V17.1577Z" fill="#101010"/>
<path d="M67.0527 14.4873H69.271V17.2106H67.0527V14.4873Z" fill="#101010"/>
<path d="M67.0527 11.7441H69.271V14.4722H67.0527V11.7441Z" fill="#101010"/>
<path d="M67.0527 9.00146H69.271V11.7247H67.0527V9.00146Z" fill="#101010"/>
<path d="M69.3667 17.1577H71.5811V19.8858H69.3667V17.1577Z" fill="#101010"/>
<path d="M69.3667 14.4873H71.5811V17.2106H69.3667V14.4873Z" fill="#101010"/>
<path d="M69.3667 11.7446H71.5811V14.4727H69.3667V11.7446Z" fill="#101010"/>
<path d="M69.3667 9.00146H71.5811V11.7247H69.3667V9.00146Z" fill="#101010"/>
<path d="M71.5224 17.1743H73.7407V19.9024H71.5224V17.1743Z" fill="#101010"/>
<path d="M71.5281 14.4873H73.7463V17.2106H71.5281V14.4873Z" fill="#101010"/>
<path d="M71.5281 11.7446H73.7463V14.4727H71.5281V11.7446Z" fill="#101010"/>
<path d="M71.5224 9.00146H73.7407V11.7247H71.5224V9.00146Z" fill="#101010"/>
<path d="M73.6936 17.1577H75.9119V19.8858H73.6936V17.1577Z" fill="#101010"/>
<path d="M73.6936 14.4873H75.9119V17.2106H73.6936V14.4873Z" fill="white"/>
<path d="M73.6936 11.7446H75.9119V14.4727H73.6936V11.7446Z" fill="#101010"/>
<path d="M73.6936 9.00146H75.9119V11.7247H73.6936V9.00146Z" fill="#101010"/>
<path d="M76.007 17.1577H78.2214V19.8858H76.007V17.1577Z" fill="#101010"/>
<path d="M76.007 14.4873H78.2214V17.2106H76.007V14.4873Z" fill="#101010"/>
<path d="M76.007 11.7446H78.2214V14.4727H76.007V11.7446Z" fill="white"/>
<path d="M76.007 9.00146H78.2214V11.7247H76.007V9.00146Z" fill="#101010"/>
<path d="M78.1702 17.1743H80.3884V19.9024H78.1702V17.1743Z" fill="#101010"/>
<path d="M78.1687 14.4873H80.387V17.2106H78.1687V14.4873Z" fill="white"/>
<path d="M78.1687 11.7446H80.387V14.4727H78.1687V11.7446Z" fill="#101010"/>
<path d="M78.1702 9.00146H80.3884V11.7247H78.1702V9.00146Z" fill="#101010"/>
<path d="M80.3378 17.1577H82.5522V19.8858H80.3378V17.1577Z" fill="#101010"/>
<path d="M80.3378 14.4873H82.5522V17.2106H80.3378V14.4873Z" fill="#101010"/>
<path d="M80.3378 11.7446H82.5522V14.4727H80.3378V11.7446Z" fill="white"/>
<path d="M80.3378 9.00146H82.5522V11.7247H80.3378V9.00146Z" fill="#101010"/>
<path d="M82.6438 14.4873H84.8621V17.2106H82.6438V14.4873Z" fill="#101010"/>
<path d="M82.6438 11.7446H84.8621V14.4727H82.6438V11.7446Z" fill="#101010"/>
<path d="M82.6438 9.00146H84.8621V11.7247H82.6438V9.00146Z" fill="#101010"/>
<path d="M84.8249 9.00146H87.0432V11.7247H84.8249V9.00146Z" fill="#101010"/>
<path d="M86.9785 9.00146H89.1929V11.7247H86.9785V9.00146Z" fill="#101010"/>
<path d="M89.2844 9.00146H91.5027V11.7247H89.2844V9.00146Z" fill="#101010"/>
<path d="M91.4538 14.4873H93.6682V17.2106H91.4538V14.4873Z" fill="#101010"/>
<path d="M91.4538 11.7446H93.6682V14.4727H91.4538V11.7446Z" fill="#101010"/>
<path d="M91.4538 9.00146H93.6682V11.7247H91.4538V9.00146Z" fill="#101010"/>
<path d="M93.7595 17.1577H95.9778V19.8858H93.7595V17.1577Z" fill="#101010"/>
<path d="M93.7595 14.4873H95.9778V17.2106H93.7595V14.4873Z" fill="#101010"/>
<path d="M93.7595 11.7441H95.9778V14.4722H93.7595V11.7441Z" fill="#101010"/>
<path d="M93.7595 9.00146H95.9778V11.7247H93.7595V9.00146Z" fill="#101010"/>
<path d="M95.925 17.1577H98.1433V19.8858H95.925V17.1577Z" fill="#101010"/>
<path d="M95.925 14.4873H98.1433V17.2106H95.925V14.4873Z" fill="#101010"/>
<path d="M95.925 11.7446H98.1433V14.4727H95.925V11.7446Z" fill="#101010"/>
<path d="M95.925 9.00146H98.1433V11.7247H95.925V9.00146Z" fill="#101010"/>
<path d="M98.0942 17.1577H100.309V19.8858H98.0942V17.1577Z" fill="#101010"/>
<path d="M98.0942 14.4873H100.309V17.2106H98.0942V14.4873Z" fill="#101010"/>
<path d="M98.0942 11.7446H100.309V14.4727H98.0942V11.7446Z" fill="#101010"/>
<path d="M98.0942 9.00146H100.309V11.7247H98.0942V9.00146Z" fill="#101010"/>
<path d="M100.4 17.1577H102.618V19.8858H100.4V17.1577Z" fill="#101010"/>
<path d="M100.4 14.4873H102.618V17.2106H100.4V14.4873Z" fill="white"/>
<path d="M100.4 11.7441H102.618V14.4722H100.4V11.7441Z" fill="#101010"/>
<path d="M100.4 9.00146H102.618V11.7247H100.4V9.00146Z" fill="#101010"/>
<path d="M102.556 17.1743H104.771V19.9024H102.556V17.1743Z" fill="#101010"/>
<path d="M102.569 14.4873H104.784V17.2106H102.569V14.4873Z" fill="#101010"/>
<path d="M102.569 11.7441H104.784V14.4722H102.569V11.7441Z" fill="white"/>
<path d="M102.556 9.00146H104.771V11.7247H102.556V9.00146Z" fill="#101010"/>
<path d="M104.731 17.1577H106.949V19.8858H104.731V17.1577Z" fill="#101010"/>
<path d="M104.731 14.4873H106.949V17.2106H104.731V14.4873Z" fill="white"/>
<path d="M104.731 11.7446H106.949V14.4727H104.731V11.7446Z" fill="#101010"/>
<path d="M104.731 9.00146H106.949V11.7247H104.731V9.00146Z" fill="#101010"/>
<path d="M107.041 17.1577H109.259V19.8858H107.041V17.1577Z" fill="#101010"/>
<path d="M107.041 14.4873H109.259V17.2106H107.041V14.4873Z" fill="#101010"/>
<path d="M107.041 11.7446H109.259V14.4727H107.041V11.7446Z" fill="white"/>
<path d="M107.041 9.00146H109.259V11.7247H107.041V9.00146Z" fill="#101010"/>
<path d="M109.21 14.4873H111.424V17.2106H109.21V14.4873Z" fill="#101010"/>
<path d="M109.21 11.7441H111.424V14.4722H109.21V11.7441Z" fill="#101010"/>
<path d="M109.21 9.00146H111.424V11.7247H109.21V9.00146Z" fill="#101010"/>
<mask id="path-79-outside-2_797_11056" maskUnits="userSpaceOnUse" x="77.1826" y="29.9219" width="84" height="40" fill="black">
<rect fill="white" x="77.1826" y="29.9219" width="84" height="40"/>
<path fill-rule="evenodd" clip-rule="evenodd" d="M115.803 30.9219H156.888V32.7219H159.541V38.6619H157.381V44.4219H154.681V49.8219H151.081V56.1219H147.481V62.4219H145.008V66.5614H144.783V66.9202H143.523V66.9204H143.884V68.7204H79.9837V66.9204H80.1626V66.9202H78.1826L78.1826 66.5614V61.6114L78.1826 61.5202H100.681V54.3219H104.281V48.9219H107.881V43.5219H110.581V38.1219H113.282V32.7219H115.803V30.9219ZM142.981 61.5165V61.5202H142.979L142.981 61.5165ZM105.181 56.1219H105.27L105.181 56.2943V56.1219Z"/>
</mask>
<path fill-rule="evenodd" clip-rule="evenodd" d="M115.803 30.9219H156.888V32.7219H159.541V38.6619H157.381V44.4219H154.681V49.8219H151.081V56.1219H147.481V62.4219H145.008V66.5614H144.783V66.9202H143.523V66.9204H143.884V68.7204H79.9837V66.9204H80.1626V66.9202H78.1826L78.1826 66.5614V61.6114L78.1826 61.5202H100.681V54.3219H104.281V48.9219H107.881V43.5219H110.581V38.1219H113.282V32.7219H115.803V30.9219ZM142.981 61.5165V61.5202H142.979L142.981 61.5165ZM105.181 56.1219H105.27L105.181 56.2943V56.1219Z" fill="#202124"/>
<path d="M156.888 30.9219H157.888V29.9219H156.888V30.9219ZM115.803 30.9219V29.9219H114.803V30.9219H115.803ZM156.888 32.7219H155.888V33.7219H156.888V32.7219ZM159.541 32.7219H160.541V31.7219H159.541V32.7219ZM159.541 38.6619V39.6619H160.541V38.6619H159.541ZM157.381 38.6619V37.6619H156.381V38.6619H157.381ZM157.381 44.4219V45.4219H158.381V44.4219H157.381ZM154.681 44.4219V43.4219H153.681V44.4219H154.681ZM154.681 49.8219V50.8219H155.681V49.8219H154.681ZM151.081 49.8219V48.8219H150.081V49.8219H151.081ZM151.081 56.1219V57.1219H152.081V56.1219H151.081ZM147.481 56.1219V55.1219H146.481V56.1219H147.481ZM147.481 62.4219V63.4219H148.481V62.4219H147.481ZM145.008 62.4219V61.4219H144.008V62.4219H145.008ZM145.008 66.5614V67.5614H146.008V66.5614H145.008ZM144.783 66.5614V65.5614H143.783V66.5614H144.783ZM144.783 66.9202V67.9202H145.783V66.9202H144.783ZM143.523 66.9202V65.9202H142.523V66.9202H143.523ZM143.523 66.9204H142.523V67.9204H143.523V66.9204ZM143.884 66.9204H144.884V65.9204H143.884V66.9204ZM143.884 68.7204V69.7204H144.884V68.7204H143.884ZM79.9837 68.7204H78.9837V69.7204H79.9837V68.7204ZM79.9837 66.9204V65.9204H78.9837V66.9204H79.9837ZM80.1626 66.9204V67.9204H81.1626V66.9204H80.1626ZM80.1626 66.9202H81.1626V65.9202H80.1626V66.9202ZM78.1826 66.9202L77.1826 66.9202L77.1826 67.9202H78.1826V66.9202ZM78.1826 66.5614H77.1826V66.5614L78.1826 66.5614ZM78.1826 61.6114L77.1826 61.6113V61.6114H78.1826ZM78.1826 61.5202V60.5202H77.1827L77.1826 61.5201L78.1826 61.5202ZM100.681 61.5202V62.5202H101.681V61.5202H100.681ZM100.681 54.3219V53.3219H99.6812V54.3219H100.681ZM104.281 54.3219V55.3219H105.281V54.3219H104.281ZM104.281 48.9219V47.9219H103.281V48.9219H104.281ZM107.881 48.9219V49.9219H108.881V48.9219H107.881ZM107.881 43.5219V42.5219H106.881V43.5219H107.881ZM110.581 43.5219V44.5219H111.581V43.5219H110.581ZM110.581 38.1219V37.1219H109.581V38.1219H110.581ZM113.282 38.1219V39.1219H114.282V38.1219H113.282ZM113.282 32.7219V31.7219H112.282V32.7219H113.282ZM115.803 32.7219V33.7219H116.803V32.7219H115.803ZM142.981 61.5202V62.5202H143.981V61.5202H142.981ZM142.981 61.5165H143.981V58.0499L142.135 60.9838L142.981 61.5165ZM142.979 61.5202L142.133 60.9875L141.168 62.5202H142.979V61.5202ZM105.27 56.1219L106.159 56.5787L106.907 55.1219H105.27V56.1219ZM105.181 56.1219V55.1219H104.181V56.1219H105.181ZM105.181 56.2943H104.181L106.071 56.7511L105.181 56.2943ZM156.888 29.9219H115.803V31.9219H156.888V29.9219ZM157.888 32.7219V30.9219H155.888V32.7219H157.888ZM159.541 31.7219H156.888V33.7219H159.541V31.7219ZM160.541 38.6619V32.7219H158.541V38.6619H160.541ZM157.381 39.6619H159.541V37.6619H157.381V39.6619ZM158.381 44.4219V38.6619H156.381V44.4219H158.381ZM154.681 45.4219H157.381V43.4219H154.681V45.4219ZM155.681 49.8219V44.4219H153.681V49.8219H155.681ZM151.081 50.8219H154.681V48.8219H151.081V50.8219ZM152.081 56.1219V49.8219H150.081V56.1219H152.081ZM147.481 57.1219H151.081V55.1219H147.481V57.1219ZM148.481 62.4219V56.1219H146.481V62.4219H148.481ZM145.008 63.4219H147.481V61.4219H145.008V63.4219ZM146.008 66.5614V62.4219H144.008V66.5614H146.008ZM144.783 67.5614H145.008V65.5614H144.783V67.5614ZM145.783 66.9202V66.5614H143.783V66.9202H145.783ZM143.523 67.9202H144.783V65.9202H143.523V67.9202ZM144.523 66.9204V66.9202H142.523V66.9204H144.523ZM143.884 65.9204H143.523V67.9204H143.884V65.9204ZM144.884 68.7204V66.9204H142.884V68.7204H144.884ZM79.9837 69.7204H143.884V67.7204H79.9837V69.7204ZM78.9837 66.9204V68.7204H80.9837V66.9204H78.9837ZM80.1626 65.9204H79.9837V67.9204H80.1626V65.9204ZM79.1626 66.9202V66.9204H81.1626V66.9202H79.1626ZM78.1826 67.9202H80.1626V65.9202H78.1826V67.9202ZM77.1826 66.5614L77.1826 66.9202L79.1826 66.9202L79.1826 66.5614L77.1826 66.5614ZM77.1826 61.6114V66.5614H79.1826V61.6114H77.1826ZM77.1826 61.5201L77.1826 61.6113L79.1826 61.6114L79.1826 61.5202L77.1826 61.5201ZM100.681 60.5202H78.1826V62.5202H100.681V60.5202ZM99.6812 54.3219V61.5202H101.681V54.3219H99.6812ZM104.281 53.3219H100.681V55.3219H104.281V53.3219ZM103.281 48.9219V54.3219H105.281V48.9219H103.281ZM107.881 47.9219H104.281V49.9219H107.881V47.9219ZM106.881 43.5219V48.9219H108.881V43.5219H106.881ZM110.581 42.5219H107.881V44.5219H110.581V42.5219ZM109.581 38.1219V43.5219H111.581V38.1219H109.581ZM113.282 37.1219H110.581V39.1219H113.282V37.1219ZM112.282 32.7219V38.1219H114.282V32.7219H112.282ZM115.803 31.7219H113.282V33.7219H115.803V31.7219ZM114.803 30.9219V32.7219H116.803V30.9219H114.803ZM143.981 61.5202V61.5165H141.981V61.5202H143.981ZM142.979 62.5202H142.981V60.5202H142.979V62.5202ZM142.135 60.9838L142.133 60.9875L143.825 62.0528L143.828 62.0491L142.135 60.9838ZM105.27 55.1219H105.181V57.1219H105.27V55.1219ZM106.071 56.7511L106.159 56.5787L104.38 55.6651L104.292 55.8375L106.071 56.7511ZM104.181 56.1219V56.2943H106.181V56.1219H104.181Z" fill="#EFEFEF" mask="url(#path-79-outside-2_797_11056)"/>
<rect x="127.84" y="46.5425" width="1.22143" height="1.22143" fill="white"/>
<rect width="1.22143" height="1.22143" transform="matrix(1 0 0 -1 127.84 53.8711)" fill="white"/>
<rect x="126.618" y="47.7642" width="1.22143" height="1.22143" fill="white"/>
<rect width="1.22143" height="1.22143" transform="matrix(1 0 0 -1 126.618 52.6494)" fill="white"/>
<rect x="125.398" y="48.9849" width="1.22143" height="1.22143" fill="white"/>
<rect width="1.22143" height="1.22143" transform="matrix(1 0 0 -1 125.398 51.4282)" fill="white"/>
<path d="M122.183 48.9849H122.955V50.2063H122.183V48.9849Z" fill="white"/>
<path d="M122.181 51.4282H122.955V50.2068H122.181V51.4282Z" fill="white"/>
<rect x="124.177" y="48.9849" width="1.22143" height="1.22143" fill="white"/>
<rect width="1.22143" height="1.22143" transform="matrix(1 0 0 -1 124.177 51.4282)" fill="white"/>
<rect x="122.955" y="48.9849" width="1.22143" height="1.22143" fill="white"/>
<rect width="1.22143" height="1.22143" transform="matrix(1 0 0 -1 122.955 51.4282)" fill="white"/>
<rect x="124.177" y="47.7642" width="1.22143" height="1.22143" fill="white"/>
<path d="M123.566 47.7642H124.177V48.9856H123.566V47.7642Z" fill="white"/>
<rect width="1.22143" height="1.22143" transform="matrix(1 0 0 -1 124.177 52.6494)" fill="white"/>
<path d="M123.566 52.6494H124.177V51.428H123.566V52.6494Z" fill="white"/>
<rect x="125.398" y="47.7642" width="1.22143" height="1.22143" fill="white"/>
<rect width="1.22143" height="1.22143" transform="matrix(1 0 0 -1 125.398 52.6494)" fill="white"/>
<rect x="126.618" y="46.5425" width="1.22143" height="1.22143" fill="white"/>
<rect width="1.22143" height="1.22143" transform="matrix(1 0 0 -1 126.618 53.8711)" fill="white"/>
<rect x="125.398" y="46.5425" width="1.22143" height="1.22143" fill="white"/>
<rect width="1.22143" height="1.22143" transform="matrix(1 0 0 -1 125.398 53.8711)" fill="white"/>
<rect x="126.618" y="45.3208" width="1.22143" height="1.22143" fill="white"/>
<rect width="1.22143" height="1.22143" transform="matrix(1 0 0 -1 126.618 55.0928)" fill="white"/>
<rect x="127.84" y="45.3208" width="1.22143" height="1.22143" fill="white"/>
<rect width="1.22143" height="1.22143" transform="matrix(-1 0 0 1 134.203 46.543)" fill="white"/>
<rect x="134.203" y="53.8711" width="1.22143" height="1.22143" transform="rotate(180 134.203 53.8711)" fill="white"/>
<rect width="1.22143" height="1.22143" transform="matrix(-1 0 0 1 135.425 47.7646)" fill="white"/>
<rect x="135.425" y="52.6494" width="1.22143" height="1.22143" transform="rotate(180 135.425 52.6494)" fill="white"/>
<rect width="1.22143" height="1.22143" transform="matrix(-1 0 0 1 136.645 48.9854)" fill="white"/>
<rect x="136.645" y="51.4287" width="1.22143" height="1.22143" transform="rotate(180 136.645 51.4287)" fill="white"/>
<rect width="1.22143" height="1.22143" transform="matrix(-1 0 0 1 137.866 48.9854)" fill="white"/>
<rect x="137.866" y="51.4287" width="1.22143" height="1.22143" transform="rotate(180 137.866 51.4287)" fill="white"/>
<rect width="1.22143" height="1.22143" transform="matrix(-1 0 0 1 139.088 48.9854)" fill="white"/>
<rect x="139.088" y="51.4287" width="1.22143" height="1.22143" transform="rotate(180 139.088 51.4287)" fill="white"/>
<rect width="1.22143" height="1.22143" transform="matrix(-1 0 0 1 137.866 47.7646)" fill="white"/>
<rect x="137.866" y="52.6494" width="1.22143" height="1.22143" transform="rotate(180 137.866 52.6494)" fill="white"/>
<rect width="1.22143" height="1.22143" transform="matrix(-1 0 0 1 136.645 47.7646)" fill="white"/>
<rect x="136.645" y="52.6494" width="1.22143" height="1.22143" transform="rotate(180 136.645 52.6494)" fill="white"/>
<rect width="1.22143" height="1.22143" transform="matrix(-1 0 0 1 135.425 46.543)" fill="white"/>
<rect x="135.425" y="53.8711" width="1.22143" height="1.22143" transform="rotate(180 135.425 53.8711)" fill="white"/>
<rect width="1.22143" height="1.22143" transform="matrix(-1 0 0 1 136.645 46.543)" fill="white"/>
<rect x="136.645" y="53.8711" width="1.22143" height="1.22143" transform="rotate(180 136.645 53.8711)" fill="white"/>
<rect width="1.22143" height="1.22143" transform="matrix(-1 0 0 1 135.425 45.3213)" fill="white"/>
<rect x="135.425" y="55.0928" width="1.22143" height="1.22143" transform="rotate(180 135.425 55.0928)" fill="white"/>
<rect width="1.22143" height="1.22143" transform="matrix(-1 0 0 1 114.883 30.8203)" fill="white"/>
<rect x="134.203" y="55.0928" width="1.22143" height="1.22143" transform="rotate(180 134.203 55.0928)" fill="white"/>
<rect width="1.22143" height="1.22143" transform="matrix(1 0 0 -1 127.84 55.0928)" fill="white"/>
<defs>
<linearGradient id="paint0_linear_797_11056" x1="56.4782" y1="1.92774" x2="118.242" y2="5.38493" gradientUnits="userSpaceOnUse">
<stop stop-color="#EA4335"/>
<stop offset="1" stop-color="#FBBC04"/>
</linearGradient>
</defs>
</svg>
