<svg width="108" height="123" viewBox="0 0 108 123" fill="none" xmlns="http://www.w3.org/2000/svg">
<mask id="path-1-outside-1_726_18316" maskUnits="userSpaceOnUse" x="0.135254" y="0.930908" width="107" height="122" fill="black">
<rect fill="white" x="0.135254" y="0.930908" width="107" height="122"/>
<path fill-rule="evenodd" clip-rule="evenodd" d="M58.4421 1.93091H100.896V7.20713H106.173V31.4853H80.0354V35.7851H95.6952V41.9063H74.9657V51.5199H85.2553V62.7483H79.228H79.2092V57.7161H74.9281V75.8731H69.5955V83.6654H64.4694V88.9228H59.2495V108.901H64.4319V114.835H53.2033V106.459H47.9271V94.1239H43.6647V99.3063H38.4072V104.489H33.2248V115.997H38.4072V121.931H27.1411V94.0864H21.9963V88.9979H16.7576V83.6842H11.5752V78.5769H6.31765V73.188H1.13525V41.1364H7.12506V51.5762H12.3262V56.7773H17.4899V61.9409H27.1411V56.7773H32.3986V51.5199H40.2098V46.2249H47.9458V41.1176H53.2409V7.18835H58.4045V1.93091H58.4421ZM63.4701 9.51353H69.6477V15.7286H63.4514L63.4701 9.51353Z"/>
</mask>
<path fill-rule="evenodd" clip-rule="evenodd" d="M58.4421 1.93091H100.896V7.20713H106.173V31.4853H80.0354V35.7851H95.6952V41.9063H74.9657V51.5199H85.2553V62.7483H79.228H79.2092V57.7161H74.9281V75.8731H69.5955V83.6654H64.4694V88.9228H59.2495V108.901H64.4319V114.835H53.2033V106.459H47.9271V94.1239H43.6647V99.3063H38.4072V104.489H33.2248V115.997H38.4072V121.931H27.1411V94.0864H21.9963V88.9979H16.7576V83.6842H11.5752V78.5769H6.31765V73.188H1.13525V41.1364H7.12506V51.5762H12.3262V56.7773H17.4899V61.9409H27.1411V56.7773H32.3986V51.5199H40.2098V46.2249H47.9458V41.1176H53.2409V7.18835H58.4045V1.93091H58.4421ZM63.4701 9.51353H69.6477V15.7286H63.4514L63.4701 9.51353Z" fill="url(#paint0_linear_726_18316)"/>
<path d="M100.896 1.93091H101.838C101.838 1.41111 101.416 0.989732 100.896 0.989732V1.93091ZM100.896 7.20713H99.9552C99.9552 7.72693 100.377 8.14831 100.896 8.14831V7.20713ZM106.173 7.20713H107.114C107.114 6.68733 106.693 6.26595 106.173 6.26595V7.20713ZM106.173 31.4853V32.4264C106.693 32.4264 107.114 32.0051 107.114 31.4853H106.173ZM80.0354 31.4853V30.5441C79.5156 30.5441 79.0942 30.9655 79.0942 31.4853H80.0354ZM80.0354 35.7851H79.0942C79.0942 36.3049 79.5156 36.7263 80.0354 36.7263V35.7851ZM95.6952 35.7851H96.6364C96.6364 35.2653 96.215 34.8439 95.6952 34.8439V35.7851ZM95.6952 41.9063V42.8474C96.215 42.8474 96.6364 42.4261 96.6364 41.9063H95.6952ZM74.9657 41.9063V40.9651C74.4459 40.9651 74.0245 41.3865 74.0245 41.9063H74.9657ZM74.9657 51.5199H74.0245C74.0245 52.0397 74.4459 52.461 74.9657 52.461V51.5199ZM85.2553 51.5199H86.1965C86.1965 51.0001 85.7751 50.5787 85.2553 50.5787V51.5199ZM85.2553 62.7483V63.6894C85.7751 63.6894 86.1965 63.2681 86.1965 62.7483H85.2553ZM79.2092 62.7483H78.268C78.268 63.2681 78.6894 63.6894 79.2092 63.6894V62.7483ZM79.2092 57.7161H80.1504C80.1504 57.1963 79.729 56.775 79.2092 56.775V57.7161ZM74.9281 57.7161V56.775C74.4083 56.775 73.9869 57.1963 73.9869 57.7161H74.9281ZM74.9281 75.8731V76.8143C75.4479 76.8143 75.8693 76.3929 75.8693 75.8731H74.9281ZM69.5955 75.8731V74.9319C69.0757 74.9319 68.6543 75.3533 68.6543 75.8731H69.5955ZM69.5955 83.6654V84.6066C70.1153 84.6066 70.5367 84.1852 70.5367 83.6654H69.5955ZM64.4694 83.6654V82.7242C63.9496 82.7242 63.5282 83.1456 63.5282 83.6654H64.4694ZM64.4694 88.9228V89.864C64.9892 89.864 65.4106 89.4426 65.4106 88.9228H64.4694ZM59.2495 88.9228V87.9817C58.7297 87.9817 58.3083 88.403 58.3083 88.9228H59.2495ZM59.2495 108.901H58.3083C58.3083 109.421 58.7297 109.842 59.2495 109.842V108.901ZM64.4319 108.901H65.373C65.373 108.381 64.9517 107.96 64.4319 107.96V108.901ZM64.4319 114.835V115.776C64.9517 115.776 65.373 115.354 65.373 114.835H64.4319ZM53.2033 114.835H52.2622C52.2622 115.354 52.6835 115.776 53.2033 115.776V114.835ZM53.2033 106.459H54.1445C54.1445 105.939 53.7231 105.518 53.2033 105.518V106.459ZM47.9271 106.459H46.9859C46.9859 106.979 47.4073 107.4 47.9271 107.4V106.459ZM47.9271 94.1239H48.8682C48.8682 93.6041 48.4469 93.1828 47.9271 93.1828V94.1239ZM43.6647 94.1239V93.1828C43.1449 93.1828 42.7235 93.6041 42.7235 94.1239H43.6647ZM43.6647 99.3063V100.247C44.1845 100.247 44.6059 99.8261 44.6059 99.3063H43.6647ZM38.4072 99.3063V98.3651C37.8874 98.3651 37.466 98.7865 37.466 99.3063H38.4072ZM38.4072 104.489V105.43C38.927 105.43 39.3484 105.008 39.3484 104.489H38.4072ZM33.2248 104.489V103.547C32.705 103.547 32.2836 103.969 32.2836 104.489H33.2248ZM33.2248 115.997H32.2836C32.2836 116.517 32.705 116.939 33.2248 116.939V115.997ZM38.4072 115.997H39.3484C39.3484 115.478 38.927 115.056 38.4072 115.056V115.997ZM38.4072 121.931V122.872C38.927 122.872 39.3484 122.451 39.3484 121.931H38.4072ZM27.1411 121.931H26.2C26.2 122.451 26.6213 122.872 27.1411 122.872V121.931ZM27.1411 94.0864H28.0823C28.0823 93.5666 27.6609 93.1452 27.1411 93.1452V94.0864ZM21.9963 94.0864H21.0551C21.0551 94.6062 21.4765 95.0276 21.9963 95.0276V94.0864ZM21.9963 88.9979H22.9375C22.9375 88.4781 22.5161 88.0568 21.9963 88.0568V88.9979ZM16.7576 88.9979H15.8164C15.8164 89.5177 16.2378 89.9391 16.7576 89.9391V88.9979ZM16.7576 83.6842H17.6987C17.6987 83.1644 17.2774 82.743 16.7576 82.743V83.6842ZM11.5752 83.6842H10.634C10.634 84.204 11.0554 84.6253 11.5752 84.6253V83.6842ZM11.5752 78.5769H12.5163C12.5163 78.0571 12.095 77.6358 11.5752 77.6358V78.5769ZM6.31765 78.5769H5.37648C5.37648 79.0967 5.79786 79.5181 6.31765 79.5181V78.5769ZM6.31765 73.188H7.25883C7.25883 72.6683 6.83745 72.2469 6.31765 72.2469V73.188ZM1.13525 73.188H0.194077C0.194077 73.7078 0.615457 74.1292 1.13525 74.1292L1.13525 73.188ZM1.13525 41.1364V40.1952C0.615457 40.1952 0.194077 40.6166 0.194077 41.1364H1.13525ZM7.12506 41.1364H8.06623C8.06623 40.6166 7.64485 40.1952 7.12506 40.1952V41.1364ZM7.12506 51.5762H6.18388C6.18388 52.096 6.60526 52.5174 7.12506 52.5174V51.5762ZM12.3262 51.5762H13.2674C13.2674 51.0564 12.846 50.635 12.3262 50.635V51.5762ZM12.3262 56.7773H11.3851C11.3851 57.2971 11.8064 57.7185 12.3262 57.7185V56.7773ZM17.4899 56.7773H18.431C18.431 56.2575 18.0097 55.8361 17.4899 55.8361V56.7773ZM17.4899 61.9409H16.5487C16.5487 62.4607 16.9701 62.8821 17.4899 62.8821V61.9409ZM27.1411 61.9409V62.8821C27.6609 62.8821 28.0823 62.4607 28.0823 61.9409H27.1411ZM27.1411 56.7773V55.8361C26.6213 55.8361 26.2 56.2575 26.2 56.7773H27.1411ZM32.3986 56.7773V57.7185C32.9184 57.7185 33.3398 57.2971 33.3398 56.7773H32.3986ZM32.3986 51.5199V50.5787C31.8788 50.5787 31.4575 51.0001 31.4575 51.5199H32.3986ZM40.2098 51.5199V52.461C40.7296 52.461 41.151 52.0397 41.151 51.5199H40.2098ZM40.2098 46.2249V45.2837C39.69 45.2837 39.2686 45.7051 39.2686 46.2249H40.2098ZM47.9458 46.2249V47.1661C48.4656 47.1661 48.887 46.7447 48.887 46.2249H47.9458ZM47.9458 41.1176V40.1765C47.426 40.1765 47.0047 40.5978 47.0047 41.1176H47.9458ZM53.2409 41.1176V42.0588C53.7607 42.0588 54.1821 41.6374 54.1821 41.1176H53.2409ZM53.2409 7.18835V6.24718C52.7211 6.24718 52.2997 6.66856 52.2997 7.18835H53.2409ZM58.4045 7.18835V8.12953C58.9243 8.12953 59.3457 7.70815 59.3457 7.18835H58.4045ZM58.4045 1.93091V0.989732C57.8847 0.989732 57.4633 1.41111 57.4633 1.93091L58.4045 1.93091ZM69.6477 9.51353H70.5889C70.5889 8.99374 70.1675 8.57236 69.6477 8.57236V9.51353ZM63.4701 9.51353V8.57236C62.9515 8.57236 62.5305 8.99201 62.529 9.51069L63.4701 9.51353ZM69.6477 15.7286V16.6698C70.1675 16.6698 70.5889 16.2484 70.5889 15.7286H69.6477ZM63.4514 15.7286L62.5102 15.7257C62.5094 15.9758 62.6083 16.216 62.7849 16.3931C62.9614 16.5702 63.2013 16.6698 63.4514 16.6698V15.7286ZM100.896 0.989732H58.4421V2.87208H100.896V0.989732ZM101.838 7.20713V1.93091H99.9552V7.20713H101.838ZM106.173 6.26595H100.896V8.14831H106.173V6.26595ZM107.114 31.4853V7.20713H105.232V31.4853H107.114ZM80.0354 32.4264H106.173V30.5441H80.0354V32.4264ZM80.9766 35.7851V31.4853H79.0942V35.7851H80.9766ZM95.6952 34.8439H80.0354V36.7263H95.6952V34.8439ZM96.6364 41.9063V35.7851H94.7541V41.9063H96.6364ZM74.9657 42.8474H95.6952V40.9651H74.9657V42.8474ZM75.9068 51.5199V41.9063H74.0245V51.5199H75.9068ZM85.2553 50.5787H74.9657V52.461H85.2553V50.5787ZM86.1965 62.7483V51.5199H84.3142V62.7483H86.1965ZM79.228 63.6894H85.2553V61.8071H79.228V63.6894ZM79.2092 63.6894H79.228V61.8071H79.2092V63.6894ZM78.268 57.7161V62.7483H80.1504V57.7161H78.268ZM74.9281 58.6573H79.2092V56.775H74.9281V58.6573ZM75.8693 75.8731V57.7161H73.9869V75.8731H75.8693ZM69.5955 76.8143H74.9281V74.9319H69.5955V76.8143ZM70.5367 83.6654V75.8731H68.6543V83.6654H70.5367ZM64.4694 84.6066H69.5955V82.7242H64.4694V84.6066ZM65.4106 88.9228V83.6654H63.5282V88.9228H65.4106ZM59.2495 89.864H64.4694V87.9817H59.2495V89.864ZM60.1906 108.901V88.9228H58.3083V108.901H60.1906ZM64.4319 107.96H59.2495V109.842H64.4319V107.96ZM65.373 114.835V108.901H63.4907V114.835H65.373ZM53.2033 115.776H64.4319V113.893H53.2033V115.776ZM52.2622 106.459V114.835H54.1445V106.459H52.2622ZM47.9271 107.4H53.2033V105.518H47.9271V107.4ZM46.9859 94.1239V106.459H48.8682V94.1239H46.9859ZM43.6647 95.0651H47.9271V93.1828H43.6647V95.0651ZM44.6059 99.3063V94.1239H42.7235V99.3063H44.6059ZM38.4072 100.247H43.6647V98.3651H38.4072V100.247ZM39.3484 104.489V99.3063H37.466V104.489H39.3484ZM33.2248 105.43H38.4072V103.547H33.2248V105.43ZM34.166 115.997V104.489H32.2836V115.997H34.166ZM38.4072 115.056H33.2248V116.939H38.4072V115.056ZM39.3484 121.931V115.997H37.466V121.931H39.3484ZM27.1411 122.872H38.4072V120.99H27.1411V122.872ZM26.2 94.0864V121.931H28.0823V94.0864H26.2ZM21.9963 95.0276H27.1411V93.1452H21.9963V95.0276ZM21.0551 88.9979V94.0864H22.9375V88.9979H21.0551ZM16.7576 89.9391H21.9963V88.0568H16.7576V89.9391ZM15.8164 83.6842V88.9979H17.6987V83.6842H15.8164ZM11.5752 84.6253H16.7576V82.743H11.5752V84.6253ZM10.634 78.5769V83.6842H12.5163V78.5769H10.634ZM6.31765 79.5181H11.5752V77.6358H6.31765V79.5181ZM5.37648 73.188V78.5769H7.25883V73.188H5.37648ZM1.13525 74.1292H6.31765V72.2469H1.13525V74.1292ZM0.194077 41.1364V73.188H2.07643V41.1364H0.194077ZM7.12506 40.1952H1.13525V42.0776H7.12506V40.1952ZM8.06623 51.5762V41.1364H6.18388V51.5762H8.06623ZM12.3262 50.635H7.12506V52.5174H12.3262V50.635ZM13.2674 56.7773V51.5762H11.3851V56.7773H13.2674ZM17.4899 55.8361H12.3262V57.7185H17.4899V55.8361ZM18.431 61.9409V56.7773H16.5487V61.9409H18.431ZM27.1411 60.9997H17.4899V62.8821H27.1411V60.9997ZM26.2 56.7773V61.9409H28.0823V56.7773H26.2ZM32.3986 55.8361H27.1411V57.7185H32.3986V55.8361ZM31.4575 51.5199V56.7773H33.3398V51.5199H31.4575ZM40.2098 50.5787H32.3986V52.461H40.2098V50.5787ZM39.2686 46.2249V51.5199H41.151V46.2249H39.2686ZM47.9458 45.2837H40.2098V47.1661H47.9458V45.2837ZM47.0047 41.1176V46.2249H48.887V41.1176H47.0047ZM53.2409 40.1765H47.9458V42.0588H53.2409V40.1765ZM52.2997 7.18835V41.1176H54.1821V7.18835H52.2997ZM58.4045 6.24718H53.2409V8.12953H58.4045V6.24718ZM57.4633 1.93091V7.18835H59.3457V1.93091H57.4633ZM58.4421 0.989732H58.4045V2.87208H58.4421V0.989732ZM69.6477 8.57236H63.4701V10.4547H69.6477V8.57236ZM70.5889 15.7286V9.51353H68.7065V15.7286H70.5889ZM63.4514 16.6698H69.6477V14.7874H63.4514V16.6698ZM62.529 9.51069L62.5102 15.7257L64.3925 15.7314L64.4113 9.51638L62.529 9.51069Z" fill="white" mask="url(#path-1-outside-1_726_18316)"/>
<path d="M53.2018 11.3062H55.3203V13.9115H53.2018V11.3062Z" fill="#101010"/>
<path d="M53.2018 8.68677H55.3203V11.2876H53.2018V8.68677Z" fill="#101010"/>
<path d="M55.4111 8.68652H57.5259V11.2873H55.4111V8.68652Z" fill="#101010"/>
<path d="M57.4757 8.68652H59.5942V11.2873H57.4757V8.68652Z" fill="#101010"/>
<path d="M59.6818 8.68677H61.8003V11.2876H59.6818V8.68677Z" fill="#101010"/>
<path d="M61.7652 13.9255H63.8682V17.2678H61.7652V13.9255Z" fill="#101010"/>
<path d="M61.7534 11.3062H63.8682V13.9115H61.7534V11.3062Z" fill="#101010"/>
<path d="M61.7382 8.68677H63.853V11.2876H61.7382V8.68677Z" fill="#101010"/>
<path d="M63.8175 16.4761H65.936V19.0814H63.8175V16.4761Z" fill="#101010"/>
<path d="M63.8175 13.9255H65.936V16.5263H63.8175V13.9255Z" fill="#101010"/>
<path d="M63.8175 11.3059H65.936V13.9113H63.8175V11.3059Z" fill="#101010"/>
<path d="M63.8175 8.68652H65.936V11.2873H63.8175V8.68652Z" fill="#101010"/>
<path d="M66.0273 16.4761H68.1421V19.0814H66.0273V16.4761Z" fill="#101010"/>
<path d="M66.0273 13.9255H68.1421V16.5263H66.0273V13.9255Z" fill="#101010"/>
<path d="M66.0273 11.3062H68.1421V13.9115H66.0273V11.3062Z" fill="#101010"/>
<path d="M66.0273 8.68677H68.1421V11.2876H66.0273V8.68677Z" fill="#101010"/>
<path d="M68.0861 16.4919H70.2046V19.0973H68.0861V16.4919Z" fill="#101010"/>
<path d="M68.0914 13.9255H70.21V16.5263H68.0914V13.9255Z" fill="#101010"/>
<path d="M68.0914 11.3062H70.21V13.9115H68.0914V11.3062Z" fill="#101010"/>
<path d="M68.0861 8.68677H70.2046V11.2876H68.0861V8.68677Z" fill="#101010"/>
<path d="M70.1593 16.4761H72.2778V19.0814H70.1593V16.4761Z" fill="#101010"/>
<path d="M70.1593 13.9255H72.2778V16.5263H70.1593V13.9255Z" fill="white"/>
<path d="M70.1593 11.3062H72.2778V13.9115H70.1593V11.3062Z" fill="#101010"/>
<path d="M70.1593 8.68677H72.2778V11.2876H70.1593V8.68677Z" fill="#101010"/>
<path d="M72.3691 16.4761H74.4839V19.0814H72.3691V16.4761Z" fill="#101010"/>
<path d="M72.3691 13.9255H74.4839V16.5263H72.3691V13.9255Z" fill="#101010"/>
<path d="M72.3691 11.3062H74.4839V13.9115H72.3691V11.3062Z" fill="white"/>
<path d="M72.3691 8.68677H74.4839V11.2876H72.3691V8.68677Z" fill="#101010"/>
<path d="M74.4347 16.4919H76.5532V19.0973H74.4347V16.4919Z" fill="#101010"/>
<path d="M74.4333 13.9255H76.5518V16.5263H74.4333V13.9255Z" fill="white"/>
<path d="M74.4333 11.3062H76.5518V13.9115H74.4333V11.3062Z" fill="#101010"/>
<path d="M74.4347 8.68677H76.5532V11.2876H74.4347V8.68677Z" fill="#101010"/>
<path d="M76.5053 16.4761H78.6201V19.0814H76.5053V16.4761Z" fill="#101010"/>
<path d="M76.5053 13.9255H78.6201V16.5263H76.5053V13.9255Z" fill="#101010"/>
<path d="M76.5053 11.3062H78.6201V13.9115H76.5053V11.3062Z" fill="white"/>
<path d="M76.5053 8.68677H78.6201V11.2876H76.5053V8.68677Z" fill="#101010"/>
<path d="M78.7072 13.9255H80.8257V16.5263H78.7072V13.9255Z" fill="#101010"/>
<path d="M78.7072 11.3062H80.8257V13.9115H78.7072V11.3062Z" fill="#101010"/>
<path d="M78.7072 8.68677H80.8257V11.2876H78.7072V8.68677Z" fill="#101010"/>
<path d="M80.7907 8.68677H82.9092V11.2876H80.7907V8.68677Z" fill="#101010"/>
<path d="M82.8471 8.68677H84.9619V11.2876H82.8471V8.68677Z" fill="#101010"/>
<path d="M85.0495 8.68677H87.168V11.2876H85.0495V8.68677Z" fill="#101010"/>
<path d="M87.121 13.9255H89.2358V16.5263H87.121V13.9255Z" fill="#101010"/>
<path d="M87.121 11.3062H89.2358V13.9115H87.121V11.3062Z" fill="#101010"/>
<path d="M87.121 8.68677H89.2358V11.2876H87.121V8.68677Z" fill="#101010"/>
<path d="M89.3229 16.4761H91.4414V19.0814H89.3229V16.4761Z" fill="#101010"/>
<path d="M89.3229 13.9255H91.4414V16.5263H89.3229V13.9255Z" fill="#101010"/>
<path d="M89.3229 11.3059H91.4414V13.9113H89.3229V11.3059Z" fill="#101010"/>
<path d="M89.3229 8.68652H91.4414V11.2873H89.3229V8.68652Z" fill="#101010"/>
<path d="M91.3913 16.4761H93.5098V19.0814H91.3913V16.4761Z" fill="#101010"/>
<path d="M91.3913 13.9255H93.5098V16.5263H91.3913V13.9255Z" fill="#101010"/>
<path d="M91.3913 11.3062H93.5098V13.9115H91.3913V11.3062Z" fill="#101010"/>
<path d="M91.3913 8.68652H93.5098V11.2873H91.3913V8.68652Z" fill="#101010"/>
<path d="M93.4628 16.4761H95.5776V19.0814H93.4628V16.4761Z" fill="#101010"/>
<path d="M93.4628 13.9255H95.5776V16.5263H93.4628V13.9255Z" fill="#101010"/>
<path d="M93.4628 11.3062H95.5776V13.9115H93.4628V11.3062Z" fill="#101010"/>
<path d="M93.4628 8.68677H95.5776V11.2876H93.4628V8.68677Z" fill="#101010"/>
<path d="M95.6647 16.4761H97.7832V19.0814H95.6647V16.4761Z" fill="#101010"/>
<path d="M95.6647 13.9255H97.7832V16.5263H95.6647V13.9255Z" fill="white"/>
<path d="M95.6647 11.3059H97.7832V13.9113H95.6647V11.3059Z" fill="#101010"/>
<path d="M95.6647 8.68652H97.7832V11.2873H95.6647V8.68652Z" fill="#101010"/>
<path d="M97.724 16.4919H99.8389V19.0973H97.724V16.4919Z" fill="#101010"/>
<path d="M97.7367 13.9255H99.8516V16.5263H97.7367V13.9255Z" fill="#101010"/>
<path d="M97.7367 11.3059H99.8516V13.9113H97.7367V11.3059Z" fill="white"/>
<path d="M97.724 8.68652H99.8389V11.2873H97.724V8.68652Z" fill="#101010"/>
<path d="M99.8009 16.4761H101.919V19.0814H99.8009V16.4761Z" fill="#101010"/>
<path d="M99.8009 13.9255H101.919V16.5263H99.8009V13.9255Z" fill="white"/>
<path d="M99.8009 11.3062H101.919V13.9115H99.8009V11.3062Z" fill="#101010"/>
<path d="M99.8009 8.68677H101.919V11.2876H99.8009V8.68677Z" fill="#101010"/>
<path d="M102.007 16.4761H104.125V19.0814H102.007V16.4761Z" fill="#101010"/>
<path d="M102.007 13.9255H104.125V16.5263H102.007V13.9255Z" fill="#101010"/>
<path d="M102.007 11.3062H104.125V13.9115H102.007V11.3062Z" fill="white"/>
<path d="M102.007 8.68677H104.125V11.2876H102.007V8.68677Z" fill="#101010"/>
<path d="M104.079 13.9255H106.193V16.5263H104.079V13.9255Z" fill="#101010"/>
<path d="M104.079 11.3059H106.193V13.9113H104.079V11.3059Z" fill="#101010"/>
<path d="M104.079 8.68652H106.193V11.2873H104.079V8.68652Z" fill="#101010"/>
<defs>
<linearGradient id="paint0_linear_726_18316" x1="53.7183" y1="1.93091" x2="112.705" y2="5.23262" gradientUnits="userSpaceOnUse">
<stop stop-color="#EA4335"/>
<stop offset="1" stop-color="#FBBC04"/>
</linearGradient>
</defs>
</svg>
