<svg width="371" height="360" viewBox="0 0 371 360" fill="none" xmlns="http://www.w3.org/2000/svg">
<path d="M76.7772 156.998L150.846 140.983C155.624 139.95 160.841 140.643 165.334 142.919C169.828 145.195 173.189 148.845 174.72 153.027C176.247 157.197 175.84 161.573 173.613 165.214C171.381 168.862 167.472 171.523 162.695 172.556C162.695 172.556 162.695 172.556 162.695 172.556L118.766 182.031L76.7772 156.998Z" fill="#1F2123" stroke="#EEEEEE" stroke-width="1.94999"/>
<path d="M67.5947 184.472L67.5947 184.472C65.7476 182.912 64.2549 181.08 63.1949 179.086C62.1353 177.093 61.5292 174.979 61.4015 172.864C61.2739 170.75 61.6263 168.669 62.4372 166.738C63.2482 164.807 64.5057 163.055 66.1458 161.584C67.7865 160.112 69.7794 158.951 72.0163 158.172C74.2533 157.394 76.6869 157.016 79.178 157.065C81.669 157.115 84.1634 157.591 86.5171 158.466C88.8707 159.341 91.0324 160.597 92.8795 162.158L152.648 212.667C152.648 212.668 152.648 212.668 152.648 212.668C155.731 215.289 157.779 218.633 158.517 222.164C159.253 225.69 158.646 229.228 156.797 232.247C154.945 235.269 151.931 237.631 148.189 238.936C144.444 240.242 140.195 240.41 136.102 239.398C132.843 238.587 129.83 237.062 127.364 234.983L67.5947 184.472Z" fill="#1F2123" stroke="#EEEEEE" stroke-width="1.94999"/>
<path d="M271.568 235.313L271.564 235.31L211.798 184.808C208.313 181.621 206.322 177.515 206.175 173.367C206.027 169.222 207.729 165.301 210.956 162.417C214.191 159.526 218.723 157.894 223.621 157.913C228.514 157.933 233.349 159.6 237.109 162.554L296.865 213.053C296.865 213.053 296.866 213.054 296.866 213.054C299.956 215.673 302.012 219.017 302.754 222.55C303.495 226.078 302.891 229.62 301.041 232.641C299.189 235.666 296.172 238.029 292.426 239.334C288.678 240.638 284.425 240.803 280.331 239.785C277.055 238.964 274.032 237.418 271.568 235.313Z" fill="#1E1E1E" stroke="#EEEEEE" stroke-width="1.94999"/>
<path d="M213.674 256.484L213.673 256.484C210.781 257.112 207.699 257.111 204.692 256.482L203.887 256.279C199.798 255.252 196.125 253.108 193.432 250.197C190.74 247.288 189.188 243.788 188.972 240.25C188.756 236.716 189.882 233.307 192.187 230.54C194.496 227.768 197.874 225.778 201.826 224.911C201.827 224.911 201.827 224.91 201.828 224.91L246.398 215.271L287.775 240.462L213.674 256.484Z" fill="#1F2123" stroke="#EEEEEE" stroke-width="1.94999"/>
<rect x="156.16" y="136.41" width="20.4479" height="25.8289" fill="#1E1E1E"/>
<rect x="68.3061" y="141.717" width="20.4479" height="25.8289" transform="rotate(14 68.3061 141.717)" fill="#1E1E1E"/>
<rect x="142.17" y="201.522" width="20.4479" height="25.8289" transform="rotate(10 142.17 201.522)" fill="#1E1E1E"/>
<rect x="195.642" y="214.59" width="20.5415" height="23.8632" transform="rotate(14 195.642 214.59)" fill="#1F2123"/>
<rect x="212.375" y="147.421" width="20.4479" height="25.8289" transform="rotate(12 212.375 147.421)" fill="#1E1E1E"/>
<rect x="292.868" y="201.616" width="15.1885" height="25.8289" transform="rotate(10 292.868 201.616)" fill="#1F2123"/>
<rect x="287.046" y="213.705" width="25.3615" height="31.9524" transform="rotate(78 287.046 213.705)" fill="#1F2123"/>
<path d="M82.9458 130.901L157.014 114.886C161.793 113.853 167.009 114.545 171.503 116.822C175.997 119.098 179.357 122.748 180.888 126.929C182.416 131.1 182.009 135.476 179.782 139.116C177.55 142.765 173.641 145.426 168.864 146.459C168.864 146.459 168.864 146.459 168.864 146.459L124.935 155.934L82.9458 130.901Z" fill="url(#paint0_linear_692_6350)" stroke="#EEEEEE" stroke-width="1.94999"/>
<path d="M73.7646 158.375L73.7646 158.375C71.9175 156.815 70.4247 154.983 69.3648 152.989C68.3051 150.996 67.6991 148.882 67.5714 146.767C67.4437 144.652 67.7961 142.572 68.607 140.641C69.4181 138.71 70.6756 136.958 72.3157 135.487C73.9564 134.015 75.9493 132.853 78.1861 132.075C80.4231 131.297 82.8567 130.919 85.3478 130.968C87.8389 131.018 90.3333 131.493 92.6869 132.369C95.0406 133.244 97.2022 134.5 99.0493 136.061L158.817 186.57C158.818 186.57 158.818 186.571 158.818 186.571C161.9 189.192 163.949 192.536 164.687 196.067C165.423 199.592 164.816 203.131 162.967 206.149C161.115 209.172 158.101 211.534 154.358 212.839C150.614 214.145 146.365 214.313 142.272 213.301C139.013 212.49 136 210.965 133.534 208.886L73.7646 158.375Z" fill="url(#paint1_linear_692_6350)" stroke="#EEEEEE" stroke-width="1.94999"/>
<path d="M219.844 230.389L219.843 230.389C216.951 231.017 213.869 231.017 210.862 230.387L210.057 230.185C205.968 229.157 202.295 227.014 199.602 224.103C196.91 221.193 195.358 217.693 195.142 214.155C194.926 210.621 196.052 207.213 198.357 204.445C200.665 201.674 204.044 199.684 207.996 198.816C207.996 198.816 207.997 198.816 207.997 198.816L252.568 189.177L293.945 214.367L219.844 230.389Z" fill="url(#paint2_linear_692_6350)" stroke="#EEEEEE" stroke-width="1.94999"/>
<path d="M277.738 209.216L277.734 209.212L217.968 158.711C214.483 155.524 212.492 151.417 212.345 147.27C212.197 143.125 213.899 139.203 217.126 136.319C220.361 133.429 224.892 131.797 229.791 131.816C234.684 131.835 239.519 133.502 243.279 136.456L303.035 186.956C303.035 186.956 303.035 186.956 303.036 186.957C306.126 189.575 308.182 192.919 308.924 196.453C309.665 199.981 309.061 203.522 307.211 206.544C305.359 209.569 302.342 211.932 298.596 213.236C294.848 214.541 290.595 214.706 286.5 213.688C283.225 212.866 280.202 211.32 277.738 209.216Z" fill="url(#paint3_linear_692_6350)" stroke="#EEEEEE" stroke-width="1.94999"/>
<line x1="69.0642" y1="139.829" x2="61.9478" y2="168.371" stroke="white" stroke-width="1.94999"/>
<line x1="164.621" y1="202.636" x2="157.709" y2="230.551" stroke="white" stroke-width="1.94999"/>
<line x1="181.805" y1="133.866" x2="174.881" y2="162.599" stroke="white" stroke-width="1.94999"/>
<line x1="165" y1="147.205" x2="158.781" y2="173.013" stroke="white" stroke-width="1.94999"/>
<line x1="221.583" y1="161.386" x2="215.364" y2="187.193" stroke="white" stroke-width="1.94999"/>
<line x1="139.034" y1="152.333" x2="135.42" y2="167.329" stroke="white" stroke-width="1.94999"/>
<line x1="240.577" y1="177.953" x2="236.963" y2="192.949" stroke="white" stroke-width="1.94999"/>
<line x1="143.053" y1="212.784" x2="136.497" y2="239.986" stroke="white" stroke-width="1.94999"/>
<line x1="210.5" y1="229.437" x2="203.945" y2="256.64" stroke="white" stroke-width="1.94999"/>
<line x1="121.73" y1="198.966" x2="115.426" y2="225.123" stroke="white" stroke-width="1.94999"/>
<path d="M134.533 166.758C167.812 159.647 171.369 159.716 177.739 150.561" stroke="white" stroke-width="1.94999"/>
<path d="M240.226 192.286C214.07 171.074 210.933 169.544 209.144 158.551" stroke="white" stroke-width="1.94999"/>
<line x1="236.932" y1="226.855" x2="230.628" y2="253.011" stroke="white" stroke-width="1.94999"/>
<line x1="100.468" y1="181.596" x2="94.3325" y2="207.055" stroke="white" stroke-width="1.94999"/>
<line x1="263.93" y1="220.73" x2="257.794" y2="246.188" stroke="white" stroke-width="1.94999"/>
<line x1="79.7225" y1="163.729" x2="73.5871" y2="189.188" stroke="white" stroke-width="1.94999"/>
<line x1="289.39" y1="215.593" x2="283.255" y2="241.052" stroke="white" stroke-width="1.94999"/>
<line x1="213.308" y1="141.444" x2="206.078" y2="172.651" stroke="white" stroke-width="1.94999"/>
<line x1="308.963" y1="199.164" x2="302.261" y2="230.746" stroke="white" stroke-width="1.94999"/>
<line x1="196.162" y1="207.878" x2="189.33" y2="235.92" stroke="white" stroke-width="1.94999"/>
<path d="M64.0065 159.31C64.4465 162.09 66.8473 168.862 72.9299 173.715C79.0125 178.567 114.052 208.466 130.812 222.809C136.266 226.649 149.676 232.066 159.682 223.01" stroke="white" stroke-width="1.94999"/>
<path d="M304.799 219.406C303.106 221.653 297.807 226.506 290.158 227.935C282.509 229.364 237.534 239.312 216.003 244.108C209.384 244.938 195.001 243.426 190.417 230.733" stroke="white" stroke-width="1.94999"/>
<defs>
<linearGradient id="paint0_linear_692_6350" x1="137.848" y1="106.852" x2="125.319" y2="157.106" gradientUnits="userSpaceOnUse">
<stop stop-color="#FDC932"/>
<stop offset="1" stop-color="#E84436"/>
</linearGradient>
<linearGradient id="paint1_linear_692_6350" x1="124.568" y1="139.169" x2="107.967" y2="205.752" gradientUnits="userSpaceOnUse">
<stop stop-color="#5480E9"/>
<stop offset="1" stop-color="#CD526D"/>
</linearGradient>
<linearGradient id="paint2_linear_692_6350" x1="251.643" y1="187.867" x2="239.035" y2="238.433" gradientUnits="userSpaceOnUse">
<stop stop-color="#FDC932"/>
<stop offset="1" stop-color="#34A653"/>
</linearGradient>
<linearGradient id="paint3_linear_692_6350" x1="269.047" y1="139.943" x2="252.522" y2="206.221" gradientUnits="userSpaceOnUse">
<stop stop-color="#0F9D58"/>
<stop offset="1" stop-color="#4383F2"/>
</linearGradient>
</defs>
</svg>
